<svg xmlns="http://www.w3.org/2000/svg" viewBox="0 0 213.6 213.6"><g transform="translate(-.2 -.2)"><circle class="logo_bg" r="106.8" cy="107" cx="107" fill="#e6e7e8"/><path fill="#880d53" d="M72.4 174.5L43 111.8H28.5L58 174.5z"/><path fill="#a70064" d="M107.1 100.4l-34.6 74.1H58.1l41.8-89.6z"/><path fill="#0d2240" d="M141.7 38.2l29.4 62.7h14.5l-29.5-62.7z"/><path fill="#003764" d="M107 112.4l34.6-74.2H156l-41.8 89.6z"/><path fill="#004a97" d="M58 38.2h14.4l41.8 89.6-7.2 15.5z"/><path fill="#cc007b" d="M156.1 174.5h-14.4L99.9 84.9l7.2-15.5z"/><path fill="#005da6" d="M72.4 38.2L43 100.9H28.5L58 38.2z"/><path fill="#e70095" d="M141.7 174.5l29.4-62.7h14.5l-29.5 62.7z"/></g></svg>