<svg xmlns="http://www.w3.org/2000/svg" viewBox="0 77.6 791.8 457.1"><path fill="#121F2A" d="M776.7 309.9l.2-.2c.2-.4.6-.8.8-1.1l.2-.2c.4-.4.6-.8 1.1-1.3l1.1-1.1.2-.2c.4-.4.8-.6 1.3-.8.4-.2.8-.6 1.5-.8l.2-.2c.2-.2.4-.2.6-.4h.2c.2 0 .4-.2.6-.2v-13.8h7v-19.3H783c-2.1 0-4.2 2.1-4.2 4.5v.4c0 1.7.8 3.2 2.5 4l.4.2v21.8l-.4.2c-6.8 3.8-11 11-11 18.9 0 11.9 9.8 21.4 21.4 21.4v-3.4c-10.2 0-18.2-8.3-18.2-18.2 0-2.3.4-4.9 1.5-7.2.5-1.1 1.1-2.1 1.7-3zM790.5 189.7c-.2 0-.6.2-.8.2l.2 5.9c.6.4 1.5.6 1.7.6h.2v-7h-.2c-.2.1-.7.1-1.1.3zM788 160.7c0 1.1.4 2.1 1.3 2.8l.4 21.8c.4 0 1.3 0 2.1.2h.2v-28.6h-.2c-2.1 0-3.8 1.7-3.8 3.8zM790.9 211.8c-.4.6-.6 1.1-.6 1.7s.4 1.3 1.1 1.9l.2.2.2-.2v-3.8l-.2-.2c-.2-.1-.4.2-.7.4zM791.8 219.6l-.2-.2c0 .2-.4.4-.6.8-.4 1.1-.8 3.2.6 5.7l.2-.4v-5.9zM789.2 200.7c.2-.2.4-.2.8-.4l.4-.2-.4-.2c-.8-.2-1.7-.6-2.3-1.1-.6.4-1.3 1.3-1.7 2.1-.2.6-.4 1.3-.2 2.1.2 3 2.1 4.7 3.6 5.5l.8-.8c.4-.2.6-.6 1.1-.8 0 0-.4-.2-1.1-.6-.8-.8-2.1-1.9-2.3-3.2v-.6c.1-.5.5-1.1 1.3-1.8z"/><path fill="#121F2A" d="M791.2 219.2l.2-.2c-.2-.2-.6-.4-.8-.6l-.4-.4c-.6.8-1.1 1.9-1.1 3.6-.2 3.4 2.3 5.1 2.3 5.1-.2-.4-.4-.6-.6-1.1v-.2c0-.2-.2-.4-.2-.8l-.2-.4c-.2-.4-.2-.8-.2-1.3v-.4c-.2-1.1 0-1.7.4-2.3.1-.6.3-.8.6-1zM779.1 181.9l.2-.4.2-.2H781.3s.6.6 1.9 1.1c.4.2.8.2 1.5.4H786.5l.4-.2.2-.2.2-.2.2-.2c0-.6-.4-1.3-.6-1.7l-.4-.4c-.8-.4-1.7-.6-1.7-.6H780l-.6.2h-.2l-.6.2-.4.2-.4.2-.4.2-.2.4-.2.4v1c0 .4.2.8.4 1.1.2.4.4.6.8 1.1 1.5 1.5 4.2 2.5 6.6 3.2 1.1-.8 2.3-1.5 3.8-1.9h.2c-2.1-.2-4.2-.4-5.7-1.1-.6-.2-1.3-.4-1.9-.6-.6-.4-1.3-.8-1.7-1.1-.2-.2-.2-.4-.4-.6v-.2zM770.4 173.6c1.7.2 3-.2 3-.2s-.8 1.5 1.5 1.5c1.7 0 2.8-.2 2.8-.2s-.4 1.3 1.3 1.3c1.5 0 3.2-1.1 3.2-1.1s-.2 1.1 1.3 1.1c1.3 0 3.8-1.5 3.8-1.5v-5.3s-3.2-5.7-7-5.7c-2.8 0-7.8 3-7.8 3s-4.5 2.5-9.8 1.3c0 0-1.7-.6-1.5.8.2 1.5 2.5 2.5 4.7 2.8 0 0-.4 1.3 1.3 1.3 1.7 0 2.8-.4 2.8-.4s-1.3 1.1.4 1.3zM791.4 200.7c-.6.2-1.1.2-1.3.4v4.7c.6.4 1.1.8 1.5 1.1l.2.2.2-.2v-6.4h-.2l-.4.2zM790.9 186.3c-.2 0-.6 0-.8.2h-.2c-.2 0-.6.2-.8.2-.2 0-.6.2-.8.2-.2 0-.6.2-.8.4-.4.2-1.1.4-1.5.8l-.4.4-.2.2h-.4l-.6.6c-.4.4-.6 1.1-.8 1.7v2.1c0 .2.2.6.2.8 0 .2.2.4.4.8.2.2.2.4.4.8.6.8 1.5 1.9 3 2.5l.2.2.4.2.2.2c.4.2.8.4 1.5.6h.2c.4.2 1.1.2 1.5.4h.2v-2.8h-.4c-.2 0-.4-.2-.8-.2-.2 0-.4-.2-.8-.2l-.4-.2c-.2-.2-.6-.2-.8-.4l-.4-.2c-.2-.2-.6-.4-.8-.6l-.6-.6-.2-.4c-.2-.4-.4-.8-.2-1.3 0-1.7 1.7-2.8 3.4-3.4.2 0 .4-.2.6-.2s.4 0 .6-.2c.2 0 .4 0 .6-.2h.2v-2.5l.2-.4c-.6.3-.8.3-1.1.5zM790.1 209l-.2.2-.4.4c-.8.8-1.5 2.1-1.5 3.2 0 1.3 1.1 2.8 1.9 3.8l.4.4c.4.4 1.1.8 1.3 1.3l.2.2v-2.1l-.2-.2c-.2-.2-.4-.2-.6-.4-.2-.2-.6-.4-.8-.8-.4-.4-.6-1.1-.6-1.7 0-.6.2-1.1.6-1.7l.2-.4.6-.6c.2-.2.4-.2.6-.4l.2-.2v-2.5l-.2.2c-.2.5-.9.9-1.5 1.3zM789.9 114.5c-.2.2-.8.4-1.3.4l-14-3.8c-.2 0-.8-.6-.8-.8l-3.8-14c0-.2 0-1.1.4-1.3l10-10.4c.2-.2.8-.4 1.3-.4l10.4 2.8v-3.6l-9.5-2.5c-.2 0-.8-.6-.8-.8l-.6-2.3h-3.8l.8 3.2c0 .2.2.4.2.8-.2.2-.4.2-.6.4l-10.2 10.2c-1.1 1.1-1.7 3.2-1.3 4.9l3.8 14c.4 1.7 1.9 3.2 3.6 3.6l14 3.8c1.5.4 3.4 0 4.7-1.1v-5.3l-2.5 2.2zM778.2 396c0 .8.8 1.7 1.7 1.7H792v-3.4h-12.1c-.8 0-1.7.6-1.7 1.7zM792 404.7v-3.4h-8.5c-1.1 0-1.7.8-1.7 1.7s.8 1.7 1.7 1.7h8.5zM788 410.2c0 .8.8 1.7 1.7 1.7h2.3v-3.4h-2.3c-1.1 0-1.7.8-1.7 1.7zM770.8 451.1c.8 0 1.5-.8 1.5-1.9 0-.2-.8-11.7 19.5-26.3v-4h-.2c-18.9-12.7-19.3-27.8-19.3-28 0-.8-.8-1.7-1.7-1.7s-1.7.8-1.7 1.7c0 .6.2 16.3 20.1 30.1-21.2 15.7-20.1 28-20.1 28.6 0 .8.8 1.5 1.7 1.5h.2zM778.2 447.3c0 .8.8 1.7 1.7 1.7H792v-3.4h-12.1c-.8 0-1.7.6-1.7 1.7zM781.8 440.1c0 .8.8 1.7 1.7 1.7h8.5v-3.4h-8.5c-1 0-1.7.8-1.7 1.7zM788 432.9c0 .8.8 1.7 1.7 1.7h2.3v-3.4h-2.3c-1.1.2-1.7.8-1.7 1.7zM789.9 507.7l-3.6-13.8-3.6 1.1 3.6 13.8c-.2.2-.4.2-.6.4l-10.2 10.2c-1.1 1.1-1.7 3.2-1.3 4.9l2.8 10.4h3.8l-3-11.4c0-.2 0-1.1.4-1.3l10.2-10.2c.2-.2.8-.4 1.3-.4l2.3.6v-3.8l-1.5-.4c-.2-.1-.4-.1-.6-.1zM515.4 384.3h-6.8V378c0-2.5-2.1-4.7-4.7-4.7h-1.7v-1.7c1.7-.6 3-2.3 3-4.2v-10.6h-4.9c1.7-1.1 3-3 3-7.6-.2-6.4-7.6-20.8-8.3-22-.8 1.5-8.3 15.9-8.3 22 0 4.7 1.7 6.6 3.6 7.6H485v10.6c0 1.9 1.3 3.6 3 4.2v1.7h-1.7c-2.5 0-4.7 2.1-4.7 4.7v6.4h-7c-3 0-5.1 2.1-5.1 4.7v5.7c0 2.5 2.1 4.7 4.7 4.7h41.1c2.5 0 4.7-2.1 4.7-4.7V389c0-2.5-2.1-4.7-4.6-4.7zM495 342.4c.4.6 3.6 9.3 3.6 12.1 0 1.1-.4 1.7-1.1 2.3h-5.3c-.6-.6-1.1-1.3-1.1-2.3.3-2.8 3.5-11.5 3.9-12.1zm-6.8 17.6H502v7.2c0 .6-.6 1.3-1.3 1.3h-11.2c-.6 0-1.3-.6-1.3-1.3V360zm10.6 11.8v1.3H491v-1.3h7.8zm-14.4 6.2h.2c0-.6.6-1.3 1.3-1.3h17.8c.6 0 1.3.6 1.3 1.3v6.4h-20.6V378zm32.2 16.7c0 .6-.6 1.3-1.3 1.3h-41.1c-.6 0-1.3-.6-1.3-1.3V389c0-.6.6-1.3 1.3-1.3h41.1c.6 0 1.3.6 1.3 1.3v5.7zM670.5 218.6c-.8 0-1.7.8-1.7 1.7 0 .6.2 16.3 20.1 30.1-21 15.9-19.9 28.4-19.7 28.8 0 .8.8 1.5 1.7 1.5h.2c.8 0 1.5-.8 1.5-1.9 0-.2-.8-11.7 19.5-26.3 20.4 14.6 19.5 26.1 19.5 26.1-.2.8.6 1.7 1.5 1.9h.2c.8 0 1.5-.6 1.7-1.5 0-.6 1.3-12.9-20.1-28.6 19.7-13.8 20.1-29.5 20.1-30.1 0-.8-.8-1.7-1.7-1.7-.8 0-1.7.8-1.7 1.7 0 .2-.2 15.1-19.3 28l-.4.2-.4-.2c-18.9-12.7-19.3-27.8-19.3-28 0-.9-.8-1.7-1.7-1.7z"/><path fill="#121F2A" d="M678.6 225.5c0 .8.8 1.7 1.7 1.7h24c.8 0 1.7-.8 1.7-1.7s-.8-1.7-1.7-1.7h-24c-1.1.1-1.7.7-1.7 1.7zM702.1 232.8c0-.8-.8-1.7-1.7-1.7h-17c-.8 0-1.7.8-1.7 1.7s.8 1.7 1.7 1.7h17c1.1-.3 1.7-.9 1.7-1.7zM689.8 238.1c-.8 0-1.7.8-1.7 1.7s.8 1.7 1.7 1.7h4.5c.8 0 1.7-.8 1.7-1.7s-.8-1.7-1.7-1.7h-4.5zM705.7 276.9c0-.8-.8-1.7-1.7-1.7h-24c-.8 0-1.7.8-1.7 1.7s.8 1.7 1.7 1.7h24c.9-.1 1.7-.9 1.7-1.7zM682 269.6c0 .8.8 1.7 1.7 1.7h17c.8 0 1.7-.8 1.7-1.7 0-.8-.8-1.7-1.7-1.7h-17c-.9 0-1.7.9-1.7 1.7zM694.3 264.3c.8 0 1.7-.8 1.7-1.7s-.8-1.7-1.7-1.7h-4.5c-.8 0-1.7.8-1.7 1.7s.8 1.7 1.7 1.7h4.5zM694.7 388.1c1.1-1.1 1.9-2.5 1.9-3.8 0-1.1-.6-2.3-1.5-3.2h-.4l-.4.2c-.2.2-.6.4-1.1.6l.6.6.2.4c.2.4.4 1.1.6 1.7 0 .6-.2 1.3-.6 1.7-.2.2-.4.6-.8.8.2.2.4.4.8.6l.7.4z"/><path fill="#121F2A" d="M693.4 383.3l-.6-.6-.6.6c-.4.6-.6 1.1-.6 1.7s.4 1.3 1.1 1.9l.2.2.2-.2c.8-.6 1.1-1.3 1.1-1.9-.1-.7-.4-1.1-.8-1.7zM688.8 370.6c-.6.4-1.3 1.3-1.7 2.1-.2.6-.4 1.3-.2 2.1.2 3 2.1 4.7 3.6 5.5l.8-.8c.4-.2.6-.6 1.1-.8 0 0-.4-.2-1.1-.6-.8-.8-2.1-1.9-2.3-3.2v-.6c.2-.8.6-1.5 1.3-1.9.2-.2.4-.2.8-.4l.4-.2-.4-.2c-.9-.4-1.7-.8-2.3-1zM723.3 339.6c.2-1.5-1.5-.8-1.5-.8-5.3 1.7-9.8-1.1-9.8-1.1s-5.1-3-7.8-3c-3.8 0-7 5.7-7 5.7v5.3s2.8 1.5 3.8 1.5c1.5 0 1.3-1.1 1.3-1.1s1.7 1.1 3.2 1.1c1.7 0 1.3-1.3 1.3-1.3s1.1.2 2.8.2c2.3 0 1.5-1.5 1.5-1.5s1.5.4 3 .2c1.7-.2.6-1.7.6-1.7s1.1.4 2.8.4 1.3-1.3 1.3-1.3c2-.1 4.3-1.1 4.5-2.6z"/><path fill="#121F2A" d="M705.3 357c1.3-.8 2.1-1.9 2.3-3.2v-1l-.2-.4-.2-.4-.4-.2-.4-.2-.4-.2-.6-.2h-.2l-.6-.2H699.4s-.8 0-1.7.6l-.4.4c-.4.4-.6.8-.6 1.7l.2.2.2.2.2.2.4.2H699.5c2.3-.2 3.4-1.3 3.4-1.3H704.7l.2.2.2.2V354.2c0 .2-.2.4-.4.6-.4.4-.8.8-1.7 1.1-.6.2-1.3.4-1.9.6-1.7.4-3.6.8-5.7 1.1H692c-.2 0-.6 0-.8.2h-.2c-.2 0-.6.2-.8.2-.2 0-.6.2-.8.2-.2 0-.6.2-.8.4-.4.2-1.1.4-1.5.8l-.4.4-.2.2h-.5l-.6.6c-.4.4-.6 1.1-.8 1.7v2.1c0 .2.2.6.2.8 0 .2.2.4.4.8.2.2.2.4.4.8.6.8 1.5 1.9 3 2.5l.2.2.4.2.2.2c.4.2.8.4 1.5.6h.2c.4.2 1.1.2 1.5.4.2 0 .4 0 .6.2.2 0 .4.2.6.2l.4.2c.2.2.6.2.8.4.6.4 1.1 1.1 1.3 1.9v.6c0 1.3-1.3 2.5-2.3 3.2-.4.4-.8.6-1.1.6 0 0-.2.2-.6.4-.4.2-1.1.6-1.5 1.3l.2.2-.4.4c-.8.8-1.5 2.1-1.5 3.2 0 1.3 1.1 2.8 1.9 3.8l.4.4c.4.4 1.1.8 1.3 1.3l.2.2.4.2.2.2c.2.2.4.6.6.8.2.2.2.6.2.8 0 .4.2.6.2 1.1v.4c0 .4 0 .8-.2 1.3l-.2.4c0 .2-.2.6-.4 1.1-.2.4-.4.6-.6 1.1 0 0 2.3-1.7 2.3-5.1 0-1.5-.6-2.8-1.1-3.6l-.2-.2-.2-.2c-.4-.4-.8-.6-1.3-1.1-.2-.2-.4-.2-.6-.4-.2-.2-.6-.4-.8-.8-.4-.4-.6-1.1-.6-1.7s.2-1.1.6-1.7l.2-.4.6-.6c.2-.2.4-.2.6-.4.6-.4 1.1-.6 1.5-.8l.2-.2c.2 0 .4-.2.6-.4 1.5-.8 3.4-2.5 3.6-5.5 0-.8 0-1.5-.2-2.1 0-.2-.2-.4-.2-.6-.4-.6-.8-1.1-1.3-1.5l-.4-.2-.2-.2c-.4-.2-1.1-.4-1.7-.8-.2 0-.4-.2-.6-.2-.2 0-.4-.2-.6-.2s-.3.1-.3.1h-.2c-.2 0-.4-.2-.8-.2-.2 0-.4-.2-.8-.2l-.4-.2c-.2-.2-.6-.2-.8-.4l-.4-.2c-.2-.2-.6-.4-.8-.6l-.6-.6-.2-.4c-.2-.4-.4-.8-.2-1.3 0-1.7 1.7-2.8 3.4-3.4.2 0 .4-.2.6-.2.2 0 .4 0 .6-.2.2 0 .4 0 .6-.2.4 0 1.1-.2 1.5-.2h.8c.6 0 1.1 0 1.7-.2h.8c.4 0 .8-.2 1.3-.2.2 0 .6-.2.8-.2.4-.2 1.1-.2 1.5-.4.8 0 1.7-.2 2.5-.6.3-.5 1-.7 1.4-1.1z"/><path fill="#121F2A" d="M692.8 397.5c1.5-2.5 1.3-4.5.6-5.7-.2-.4-.4-.8-.6-1.1-.2.2-.4.4-.6 1.1-.7 1-.9 2.9.6 5.7zM689 332.2c0 1.1.4 2.1 1.3 2.8l.4 21.8c.4 0 1.3 0 2.1.2.8 0 1.5-.2 2.1-.2l.4-21.8c.8-.6 1.3-1.7 1.3-2.8 0-2.1-1.7-3.8-3.8-3.8s-3.8 1.7-3.8 3.8zM671.4 345.1c1.7.2 3-.2 3-.2s-.8 1.5 1.5 1.5c1.7 0 2.8-.2 2.8-.2s-.4 1.3 1.3 1.3c1.5 0 3.2-1.1 3.2-1.1s-.2 1.1 1.3 1.1c1.3 0 3.8-1.5 3.8-1.5v-5.3s-3.2-5.7-7-5.7c-2.8 0-7.8 3-7.8 3s-4.5 2.5-9.8 1.3c0-.2-1.7-.8-1.5.6.2 1.5 2.5 2.5 4.7 2.8 0 0-.4 1.3 1.3 1.3s2.8-.4 2.8-.4-1.3 1.3.4 1.5z"/><path fill="#121F2A" d="M691.1 389.2c-.6.8-1.1 1.9-1.1 3.6-.2 3.4 2.3 5.1 2.3 5.1-.2-.4-.4-.6-.6-1.1v-.2c0-.2-.2-.4-.2-.8l-.2-.4c-.2-.4-.2-.8-.2-1.3v-.4c0-.8.2-1.5.4-2.1.2-.4.4-.6.6-.8l.2-.2c-.2-.2-.6-.4-.8-.6l-.4-.8zM689.8 357.4c-2.1-.2-4-.6-5.7-1.1-.6-.2-1.3-.4-1.9-.6-.6-.4-1.3-.8-1.7-1.1-.2-.2-.2-.4-.4-.6V353.4l.2-.2.2-.2H682.3s1.1 1.1 3.4 1.3H687.5l.4-.2.2-.2.2-.2.2-.2c0-.6-.4-1.3-.6-1.7l-.4-.4c-.8-.4-1.7-.6-1.7-.6H681l-.6.2h-.2l-.6.2-.4.2-.4.2-.4.2-.2.4-.2.4v1c0 .4.2.8.4 1.1.2.4.4.6.8 1.1 1.5 1.5 4.2 2.5 6.6 3.2 1.1-.5 2.3-1.2 4-1.6zM692.8 378.2l.2.2.2-.2c.2-.2.8-.6 1.5-1.1v-4.7c-.4-.2-.8-.4-1.3-.4h-.8c-.6.2-1.1.2-1.3.4v4.7c.6.4 1.1.9 1.5 1.1zM693.8 361c-.4 0-.6-.2-1.1-.2s-.8.2-1.1.2c-.2 0-.6.2-.8.2l.2 5.9c.6.4 1.5.6 1.7.6.4-.2 1.1-.4 1.7-.6l.2-5.9c-.1 0-.5-.2-.8-.2z"/><path fill="#121F2A" d="M697 369.7c.8-.4 1.5-.8 1.9-1.3l1.3-1.3c.2-.2.4-.6.4-.8.2-.2.2-.4.4-.8 0-.2.2-.6.2-.8v-1.3-.8c-.2-.6-.4-1.1-.8-1.7l-.6-.6h-.2c-.6.2-1.3.2-1.9.4-.6 0-1.3.2-1.9.2h-1.1c1.9.6 3.4 1.5 3.4 3.4 0 .4 0 .8-.2 1.3l-.2.4-.6.6c-.2.2-.4.4-.8.6l-.4.2c-.2.2-.6.4-.8.4l-.4.2c-.2.2-.6.2-.8.2.2 0 .4.2.8.2.8.5 1.9 1.1 2.3 1.3zM594.2 269.9c-19.9 0-36 16.1-36 36s16.1 36 36 36 36-16.1 36-36c.1-19.9-16.1-36-36-36zm0 69.7c-18.4 0-33.5-15.1-33.5-33.5s15.1-33.5 33.5-33.5 33.5 15.1 33.5 33.5c.2 18.4-15 33.5-33.5 33.5z"/><path fill="#121F2A" d="M594.8 286.4H593.6c-6.6.2-15.3 4.7-15.3 13.6h-2.5l6.4 7.8 7-7.8h-2.5c.6-3.8 4-6.4 7.8-5.9h.4c6.4 0 8.9 4.9 9.1 11.9.2 7.4-4 12.1-9.1 11.9-5.3 0-7.2-2.5-8.1-6.4h-9.3c1.5 8.9 8.1 14 17.2 14 10.4 0 18-8.7 18-19.5 0-11.6-7.5-19.6-17.9-19.6zM99.2 353c1.9 0 3.6.4 5.1 1.3l9.3-16.3c-9.1-5.3-19.7-5.3-28.8 0l9.3 16.3c1.5-.9 3.2-1.3 5.1-1.3zM104.3 371.8l9.5 16.3c9.1-5.3 14.4-14.4 14.4-25h-18.9c.1 3.6-2 7-5 8.7zM89 363.1H70.2c0 10.6 5.3 19.7 14.4 25l9.3-16.3c-2.7-1.7-4.9-5.1-4.9-8.7z"/><circle fill="#121F2A" cx="99.2" cy="363.1" r="5.7"/><path fill="#121F2A" d="M99.2 326.9c-19.9 0-36 16.1-36 36s16.1 36 36 36 36-16.1 36-36-16.1-36-36-36zm0 69.7c-18.4 0-33.5-15.1-33.5-33.5s15.1-33.5 33.5-33.5 33.5 15.1 33.5 33.5c0 18.5-15 33.5-33.5 33.5zM21.8 319.9c0-7.8-4.2-15.1-11-18.9l-.4-.2v-21.6l.4-.2c1.5-.8 2.5-2.3 2.5-4v-.2c0-2.3-1.9-4.5-4.5-4.5H0v19.3h7.2v13.6c.2 0 .4.2.6.2H8c.2.2.4.2.6.4l.2.2c.4.2 1.1.6 1.5.8.4.2.8.6 1.3.8l.2.2c.4.4.8.6 1.1 1.1.4.4.8.8 1.1 1.3l.2.2c.2.4.6.6.8 1.1l.2.2c.6.8 1.1 1.9 1.7 3 1.1 2.3 1.5 4.7 1.5 7.2 0 10.2-8.3 18.2-18.2 18.2l-.2.2v3.2h.2c11.9 0 21.6-9.7 21.6-21.6zM593.2 114h1.3c4 0 7.2-3.2 7.2-7.2V77.6h-2.8V107c0 2.5-1.9 4.5-4.5 4.5h-1.3c-2.5 0-4.5-1.9-4.5-4.5V77.6h-2.8V107c.4 3.9 3.5 7 7.4 7zM672.4 125.5c4 0 7.2-3.2 7.2-7.2v-.2c1.5 0 3.8 0 6.1.2.4 7 1.1 14.2 2.8 19.3-1.5 1.5-3 3-4.5 4.2l-.8.8c-1.3 1.1-7.4 6.8-8.7 9.1-1.9 3.6-4.2 10.4 2.5 17.6 3 3.2 7.4 4.7 11.9 4.7 3.4 0 7-1.1 9.8-3 3.2-2.3 10-9.3 3-24.6 4.5-.2 7.6-2.1 9.1-5.7 3-7.6 8.3-24.4 8.5-25.4.2-.6 2.1-5.3-.2-9.5-1.5-2.8-4.5-4.5-8.7-5.3-.2-.6-.8-1.1-1.7-1.1-1.1 0-1.9.8-1.9 1.9 0 1.1.8 1.9 1.9 1.9.6 0 1.1-.2 1.5-.6 3.6.6 5.9 2.1 7.2 4.2 1.9 3.4 0 7.6 0 7.8s-5.5 17.6-8.5 25.2c-1.1 3-3.6 4.5-7.6 4.5-2.8 0-5.7-.6-7.4-1.5-1.1-.6-2.1-2.1-3-4.2 2.5-3 4.9-6.4 6.1-11 .8-3.4.2-5.9-1.5-8.1-1.9-2.1-4.9-3.2-7.8-3.8 0-2.3-.2-4.7-.2-7v-.8c0-2.1.6-3.8 1.7-4.7 1.7-1.3 4.2-1.3 5.5-1.1.2.6.8 1.1 1.7 1.1 1.1 0 1.9-.8 1.9-1.9 0-1.1-.8-1.9-1.9-1.9-.6 0-1.1.2-1.5.6-1.5-.2-4.7-.2-6.8 1.5-1.7 1.3-2.5 3.6-2.5 6.4v.8c0 2.1 0 4.2.2 6.6-3-.4-5.5-.2-6.6-.2-1.1-2.5-3.6-4.2-6.6-4.2-4 0-7.2 3.2-7.2 7.2 0 4.2 3.2 7.4 7 7.4zm20.4 19.5c1.5.8 3.6 1.3 5.7 1.7 4.9 10.2 4.5 18.2-1.5 22.5-5.5 3.8-13.8 3.2-18.2-1.5-5.3-5.5-4-10.8-2.1-14.4.8-1.5 5.3-5.7 8.1-8.3l.8-.8c1.3-1.1 2.5-2.1 3.6-3.4 1 1.9 2.1 3.3 3.6 4.2zm.6-23.3c1.3 1.5 1.5 3.4 1.1 5.7-.8 3.4-2.5 6.4-4.5 8.7-1.3-4.7-1.9-10.8-2.1-17.2 2.1.4 4.3 1.3 5.5 2.8zm-21-8.5c2.8 0 5.1 2.3 5.1 5.1s-2.3 5.1-5.1 5.1-5.1-2.3-5.1-5.1 2.4-5.1 5.1-5.1zM495 124.4c1.9 0 3.6.4 5.1 1.3l9.3-16.3c-9.1-5.3-19.7-5.3-28.8 0l9.3 16.3c1.5-.8 3.2-1.3 5.1-1.3zM500.1 143.3l9.5 16.3c9.1-5.3 14.4-14.4 14.4-25h-18.9c.1 3.6-2 7-5 8.7zM485 134.4h-18.9c0 10.6 5.3 19.7 14.4 25l9.3-16.3c-2.9-1.7-4.8-4.9-4.8-8.7z"/><circle fill="#121F2A" cx="495" cy="134.4" r="5.7"/><path fill="#121F2A" d="M495 98.4c-19.9 0-36 16.1-36 36s16.1 36 36 36 36-16.1 36-36-16.1-36-36-36zm0 69.7c-18.4 0-33.5-15.1-33.5-33.5s15.1-33.5 33.5-33.5 33.5 15.1 33.5 33.5c.2 18.4-15.1 33.5-33.5 33.5zM190.2 335.6c0 4 3.2 7.2 7.2 7.2h1.3c4 0 7.2-3.2 7.2-7.2v-61.5h.2c1.3 0 2.1-1.1 2.1-2.1 0-1.3-1.1-1.5-2.1-1.5H190c-1.3 0-2.1.4-2.1 1.5 0 1.3 1.1 2.1 2.1 2.1h.2v61.5zm12.9-40.3v40.3c0 2.5-1.9 4.5-4.5 4.5h-1.3c-2.5 0-4.5-1.9-4.5-4.5v-40.3h10.3zM396 113c11.9 0 21.4-9.8 21.4-21.4 0-5.1-1.9-10-5.1-13.8h-4.5l.8.8c.4.4.8.8 1.1 1.3l.2.2c.2.4.6.6.8 1.1l.2.2c.6.8 1.1 1.9 1.7 3 1.1 2.3 1.5 4.7 1.5 7.2 0 10.2-8.3 18.2-18.2 18.2-10.2 0-18.2-8.3-18.2-18.2 0-2.3.4-4.9 1.5-7.2.4-1.1 1.1-2.1 1.7-3l.2-.2c.2-.4.6-.8.8-1.1l.2-.2c.4-.4.6-.8 1.1-1.3l.8-.8h-4.5c-3.2 3.8-5.1 8.7-5.1 13.8.2 11.6 9.7 21.4 21.6 21.4zM78.4 170.6h41.1c2.5 0 4.7-2.1 4.7-4.7v-5.7c0-2.5-2.1-4.7-4.7-4.7h-6.8v-6.4c0-2.5-2.1-4.7-4.7-4.7h-1.7v-1.7c1.7-.6 3-2.3 3-4.2V128h-4.9c1.7-1.1 3-3 3-7.6-.2-6.4-7.6-20.8-8.3-22-.8 1.5-8.3 15.9-8.3 22 0 4.7 1.7 6.6 3.6 7.6H89v10.6c0 1.9 1.3 3.6 3 4.2v1.7h-1.7c-2.5 0-4.7 2.1-4.7 4.7v6.4h-7.2c-2.5 0-4.7 2.1-4.7 4.7v5.7c.1 2.7 2.2 4.6 4.7 4.6zm20.8-56.8c.4.6 3.6 9.3 3.6 12.1 0 1.1-.4 1.7-1.1 2.3h-5.3c-.6-.6-1.1-1.3-1.1-2.3.1-2.7 3.5-11.4 3.9-12.1zm-7 17.6H106v7.2c0 .6-.6 1.3-1.3 1.3H93.5c-.6 0-1.3-.6-1.3-1.3v-7.2zm10.8 11.9v1.3h-7.8v-1.3h7.8zm-14.2 5.9c0-.6.6-1.3 1.3-1.3h18c.6 0 1.3.6 1.3 1.3v6.4H88.8v-6.4zm-11.6 11.3c0-.6.6-1.3 1.3-1.3h41.1c.6 0 1.3.6 1.3 1.3v5.7c0 .6-.6 1.3-1.3 1.3H78.4c-.6 0-1.3-.6-1.3-1.3v-5.7zM80.8 251.8c1.5 8.3 7.2 14.4 14.6 17-1.9 1.7-3 4-3 6.6v1.1h-9.3c-1.5 0-2.8 1.3-2.8 2.8v2.8c0 1.5 1.3 2.8 2.8 2.8h38.4c1.5 0 2.8-1.3 2.8-2.8v-2.8c0-1.5-1.3-2.8-2.8-2.8h-11.2v-1.1c0-2.5-1.1-4.7-2.5-6.4 4.9-1.3 8.9-4 11.9-8.1h3.6v-2.5h-19.7v2.5h3.8c-.8.4-1.9.6-3 .8-7.6 1.3-14.8-3.8-16.1-11.4-.8-4.5.6-8.9 3.8-12.1l12.9 12.9 7.4-7.4-31.2-31.2-7.4 7.4L86.7 233c-4.9 5.1-7 12.1-5.9 18.8zm20.5 18.7c2.8 0 5.1 2.3 5.1 5.1 0 .4 0 .8-.2 1.1h-9.8c0-.4-.2-.8-.2-1.1 0-2.8 2.4-5.1 5.1-5.1z"/><circle fill="#121F2A" cx="297" cy="248.9" r="5.3"/><path fill="#121F2A" d="M325 247.8c4.9-5.9 6.1-11.7 4-15.9-1.9-3.6-6.6-5.7-12.9-5.7-1.7 0-3.6.2-5.7.4-3-8.7-7.8-14-13.4-14-5.5 0-10.4 5.5-13.4 14.2-1.9-.2-3.8-.4-5.5-.4-6.6 0-11.2 2.1-13.1 5.7-2.3 4.5-.2 10.6 4.9 16.7-.2.2-.4.6-.8.8-4.9 6.1-6.4 11.7-4 15.9 1.9 3.6 6.6 5.7 12.9 5.7 1.7 0 3.6-.2 5.7-.4 3 8.7 7.8 14 13.4 14 5.5 0 10.4-5.5 13.4-14.2 1.9.2 3.8.4 5.5.4 6.6 0 11.2-2.1 13.1-5.7 2.3-4.5.2-10.6-4.9-16.7.1-.2.4-.6.8-.8zm-14.9-10.6c-1.7-1.1-3.6-2.1-5.5-3.2-1.5-.6-2.8-1.5-4.2-1.9 2.8-.8 5.3-1.7 7.8-2.1.9 2.1 1.5 4.5 1.9 7.2zM297 215.4c4.2 0 8.1 4.7 10.6 11.9-3.4.6-7 1.9-10.8 3.2-3.6-1.5-7.2-2.5-10.6-3.2 2.7-7.3 6.6-11.9 10.8-11.9zM285.3 230c2.5.4 5.1 1.3 7.8 2.1-1.5.6-2.8 1.3-4.2 2.1-1.9 1.1-3.6 1.9-5.3 3.2.7-2.7 1.1-5.3 1.7-7.4zm-7.4 38.8c-5.5 0-9.1-1.5-10.6-4.2-1.7-3.2-.2-7.8 3.8-12.9.2-.2.4-.4.4-.6 2.5 2.5 5.7 5.3 9.1 7.6.4 3.4 1.1 6.8 1.9 9.8-1.4.3-3.1.3-4.6.3zm2.6-13.6c-2.8-1.9-5.1-4-7-6.1 2.1-2.1 4.5-4.2 7-6.1-.2 1.9-.2 4-.2 6.1 0 1.9 0 4 .2 6.1zm.2-15.9c-3.6 2.5-6.6 5.1-9.1 7.8-4.2-5.3-6.1-10.4-4.5-13.8 1.5-2.8 5.3-4.2 10.8-4.2 1.5 0 3.2.2 4.7.4-.9 3-1.5 6.2-1.9 9.8zm3.2 21.4c1.7 1.1 3.6 2.1 5.5 3.2 1.5.6 2.8 1.5 4.2 1.9-2.8.8-5.3 1.7-7.8 2.1-1.1-2.1-1.5-4.6-1.9-7.2zm13.1 21.9c-4.2 0-8.1-4.7-10.6-11.9 3.4-.6 7-1.9 10.8-3.2 3.6 1.5 7.2 2.5 10.6 3.2-2.7 7-6.6 11.9-10.8 11.9zm11.4-14.7c-2.5-.4-5.1-1.3-7.8-2.1 1.5-.6 2.8-1.3 4.2-2.1 1.9-1.1 3.6-1.9 5.3-3.2-.4 2.8-1 5.1-1.7 7.4zm2.2-10.8c-2.1 1.5-4.7 3-7 4.2-2.1 1.1-4.5 2.1-6.6 3-2.1-.8-4.5-1.9-6.6-3-2.5-1.3-4.9-2.8-7.2-4.2-.2-2.8-.4-5.5-.4-8.3 0-2.8.2-5.5.4-8.3 2.1-1.5 4.7-3 7-4.2 2.1-1.1 4.5-2.1 6.6-3 2.1.8 4.5 1.9 6.6 3 2.5 1.3 4.9 2.8 7.2 4.2.2 2.8.4 5.5.4 8.3 0 3 0 5.8-.4 8.3zm16.1 7.2c-1.5 2.8-5.3 4.2-10.8 4.2-1.5 0-3.2-.2-4.7-.4.8-3 1.5-6.1 1.9-9.8 3.6-2.5 6.6-5.1 9.1-7.8 4.5 5.6 6.4 10.5 4.5 13.8zm-13.2-21.6c2.8 1.9 5.1 4 7 6.1-2.1 2.1-4.5 4.2-7 6.1.2-1.9.2-4 .2-6.1 0-2.1 0-4.2-.2-6.1zm9.4 3.6c-.2.2-.4.4-.4.6-2.5-2.5-5.7-5.3-9.1-7.6-.4-3.4-1.1-6.8-1.9-9.8 1.7-.2 3.4-.4 4.9-.4 5.5 0 9.1 1.5 10.6 4.2 1.4 3.1-.1 7.7-4.1 13zM169.4 171.1v11.2h9.1l9.1-9.1v-9.3h-11z"/><path fill="#121F2A" d="M169.4 192.5v6.2h8.1l-3.6-5.1h9.8c.4 7.6 6.4 13.6 14 14v9.3l-5.1-3.6v8.1H203.7v-8.1l-4.9 3.6v-9.3c7.6-.4 13.6-6.4 14-14h9.8l-3.6 4.9h8.1V187.4H219l3.6 4.9h-9.8c-.4-7.6-6.4-13.6-14-14v-10l4.9 3.6v-8.1H192.6v8.1l4.9-3.6v10c-7.6.4-13.6 6.4-14 14H174l3.6-4.9h-8.1v5.1zm24.6-6c2.1 0 3.8 1.5 4 3.4.2-1.9 1.9-3.4 4-3.4 2.3 0 4 1.9 4 4 0 1.1-.4 1.9-.8 2.5l-7.2 8.1-7.2-8.1c-.6-.6-.8-1.7-.8-2.5-.1-2 1.9-4 4-4z"/><path fill="#121F2A" d="M169.4 214.1l7.2 7.2h11v-9.1l-8.9-9.1h-9.3zM226.8 214.1v-11h-9.1l-9.1 9.1v9.1h11zM208.6 173l8.9 9.3h9.3v-11.2l-7.2-7.2h-11zM393.2 192.5c-21.2 15.7-20.1 28-20.1 28.6 0 .8.8 1.5 1.7 1.5h.2c.8 0 1.5-.8 1.5-1.9 0-.2-.8-11.7 19.5-26.3 20.4 14.6 19.5 26.1 19.5 26.1-.2.8.6 1.7 1.5 1.9h.2c.8 0 1.5-.6 1.7-1.5 0-.6 1.3-12.9-20.1-28.6 19.7-13.8 20.1-29.5 20.1-30.1 0-.8-.8-1.7-1.7-1.7s-1.7.8-1.7 1.7c0 .2-.2 15.1-19.3 28l-.4.2-.4-.2c-18.9-12.7-19.3-27.8-19.3-28 0-.8-.8-1.7-1.7-1.7-.8 0-1.7.8-1.7 1.7.4.8.6 16.5 20.5 30.3z"/><path fill="#121F2A" d="M409.8 167.5c0-.8-.8-1.7-1.7-1.7h-24c-.8 0-1.7.8-1.7 1.7s.8 1.7 1.7 1.7h24c.8-.3 1.7-.9 1.7-1.7zM406.2 174.5c0-.8-.8-1.7-1.7-1.7h-17c-.8 0-1.7.8-1.7 1.7s.8 1.7 1.7 1.7h17c.8 0 1.7-.7 1.7-1.7zM393.9 180c-.8 0-1.7.8-1.7 1.7s.8 1.7 1.7 1.7h4.5c.8 0 1.7-.8 1.7-1.7 0-.8-.8-1.7-1.7-1.7h-4.5zM409.8 218.8c0-.8-.8-1.7-1.7-1.7h-24c-.8 0-1.7.8-1.7 1.7 0 .8.8 1.7 1.7 1.7h24c.8-.3 1.7-.9 1.7-1.7zM386 211.6c0 .8.8 1.7 1.7 1.7h17c.8 0 1.7-.8 1.7-1.7s-.8-1.7-1.7-1.7h-17c-1 0-1.7.8-1.7 1.7zM398.3 206c.8 0 1.7-.8 1.7-1.7s-.8-1.7-1.7-1.7h-4.5c-.8 0-1.7.8-1.7 1.7s.8 1.7 1.7 1.7h4.5zM374.2 339.6c.4 1.7 1.9 3.2 3.6 3.6l14 3.8c1.7.4 3.6-.2 4.9-1.3l10.2-10.2.6-.6 13.8 3.6 1.1-3.6-14-3.8v-.4l-3.8-14c0-.2-.2-.4-.2-.8.2-.2.4-.2.6-.4l10.2-10.2c1.1-1.1 1.7-3.2 1.3-4.9l-3.8-14c-.4-1.5-1.9-3.2-3.6-3.6l-14-3.8c-.2 0-.4 0-.6-.2l-3.6-13.8-3.6 1.1 3.6 13.8c-.2.2-.4.2-.6.4l-10.2 10.2c-1.1 1.1-1.7 3.2-1.3 4.9l3.8 14c0 .2.2.4.2.8-.2.2-.4.2-.6.4L372 320.8c-1.1 1.1-1.7 3.2-1.3 4.9l3.5 13.9zm7.8-45.2c0-.2 0-1.1.4-1.3l10.2-10.2c.2-.2.8-.4 1.3-.4l14 3.8c.2 0 .8.6.8.8l3.8 14c0 .2 0 1.1-.4 1.3l-10.2 10.2c-.2.2-.8.4-1.3.4l-14-3.8c-.2 0-.8-.6-.8-.8l-3.8-14zm-7.6 29.1l10.2-10.2c.2-.2.8-.4 1.3-.4l14 3.8c.2 0 .8.6.8.8l3.8 14c0 .2 0 1.1-.4 1.3L393.9 343c-.2.2-.8.4-1.3.4l-14-3.8c-.2 0-.8-.6-.8-.8l-3.8-14c0-.5.2-1.1.4-1.3zM306.8 117.6s1.7 1.1 3.2 1.1c1.7 0 1.3-1.3 1.3-1.3s1.1.2 2.8.2c2.3 0 1.5-1.5 1.5-1.5s1.5.4 3 .2c1.7-.2.6-1.7.6-1.7s1.1.4 2.8.4c1.7 0 1.3-1.3 1.3-1.3 2.1-.2 4.5-1.3 4.7-2.8.2-1.5-1.5-.8-1.5-.8-5.5 1.3-9.8-1.3-9.8-1.3s-5.1-3-7.8-3c-3.8 0-7 5.7-7 5.7v5.3s2.8 1.5 3.8 1.5c1.3.4 1.1-.7 1.1-.7zM290.6 121.7H285.8l-.6.2h-.2l-.6.2-.4.2-.4.2-.4.2-.2.4-.2.4v1c0 .4.2.8.4 1.1.2.4.4.6.8 1.1 1.5 1.5 4.2 2.5 6.6 3.2 1.1-.8 2.3-1.5 3.8-1.9h.2c-2.1-.2-4.2-.4-5.7-1.1-.6-.2-1.3-.4-1.9-.6-.6-.4-1.3-.8-1.7-1.1-.2-.2-.2-.4-.4-.6V124l.2-.2.2-.2H287.1s.6.6 1.9 1.1c.4.2.8.2 1.5.4H292.3l.4-.2.2-.2.2-.2.2-.2c0-.6-.4-1.3-.6-1.7l-.4-.4c-.4-.2-1.3-.4-1.5-.4h-.2zM266.3 111.3c.2 1.5 2.5 2.5 4.7 2.8 0 0-.4 1.3 1.3 1.3s2.8-.4 2.8-.4-1.1 1.5.6 1.7c1.7.2 3-.2 3-.2s-.8 1.5 1.5 1.5c1.7 0 2.8-.2 2.8-.2s-.4 1.3 1.3 1.3c1.5 0 3.2-1.1 3.2-1.1s-.2 1.1 1.3 1.1c1.3 0 3.8-1.5 3.8-1.5v-5.3s-3.2-5.7-7-5.7c-2.8 0-7.8 3-7.8 3s-4.5 2.5-9.8 1.3c-.3-.5-2-1.1-1.7.4z"/><path fill="#121F2A" d="M300.2 124.2l.2.4.2.2.2.2.4.2H303c.6 0 1.1-.2 1.5-.4 1.3-.4 1.9-1.1 1.9-1.1H308.2l1.1.4.2.2V124.9c0 .2-.2.4-.4.6-.4.4-.8.8-1.7 1.1-.6.2-1.3.4-1.9.6-1.7.4-3.6.8-5.7 1.1H296.4c-.2 0-.6 0-.8.2h-.2c-.2 0-.6.2-.8.2s-.6.2-.8.2-.6.2-.8.4c-.4.2-1.1.4-1.5.8l-.4.4-.2.2h-.2l-.6.6c-.4.4-.6 1.1-.8 1.7v2.1c0 .2.2.6.2.8 0 .2.2.4.4.8.2.2.2.4.4.8.6.8 1.5 1.9 3 2.5l.2.2.4.2.2.2c.4.2.8.4 1.5.6h.2c.4.2 1.1.2 1.5.4.2 0 .4 0 .6.2.2 0 .4.2.6.2l.4.2c.2.2.6.2.8.4.6.4 1.1 1.1 1.3 1.9v.6c0 1.3-1.3 2.5-2.3 3.2-.4.4-.8.6-1.1.6 0 0-.2.2-.6.4-.4.2-1.1.6-1.5 1.3l-.2.2-.4.4c-.8.8-1.5 2.1-1.5 3.2 0 1.3 1.1 2.8 1.9 3.8l.4.4c.4.4 1.1.8 1.3 1.3l.2.2.4.2.2.2c.2.2.4.6.6.8.2.6.4 1.3.4 2.1v.4c0 .4 0 .8-.2 1.3l-.2.4c0 .2-.2.6-.4 1.1-.2.4-.4.6-.6 1.1 0 0 2.3-1.7 2.3-5.1 0-1.5-.6-2.8-1.1-3.6l-.2-.2-.2-.2c-.3-.3-.7-.6-1-.9l.2-.2c.8-.6 1.1-1.3 1.1-1.9s-.2-1.1-.6-1.7l-.6-.6-.6.6c-.4.6-.6 1.1-.6 1.7 0 .6.4 1.3 1.1 1.9-.2-.2-.4-.2-.6-.4-.2-.2-.6-.4-.8-.8-.4-.4-.6-1.1-.6-1.7 0-.6.2-1.1.6-1.7l.2-.4.6-.6c.2-.2.4-.2.6-.4.6-.4 1.1-.6 1.5-.8l.2-.2c.2 0 .4-.2.6-.4 1.5-.8 3.4-2.5 3.6-5.5 0-.8 0-1.5-.2-2.1 0-.2-.2-.4-.2-.6-.4-.5-.7-.9-1.1-1.3 1.5-.8 2.5-1.7 3.2-2.5.2-.2.4-.6.4-.8.2-.2.2-.4.4-.8 0-.2.2-.6.2-.8v-1.3-.8c-.2-.6-.4-1.1-.8-1.7l-.6-.6h-.2c-.6.2-1.3.2-1.9.4-.6 0-1.3.2-1.9.2h-1.1c1.9.6 3.4 1.5 3.4 3.4 0 .4 0 .8-.2 1.3l-.2.4-.6.6c-.2.2-.4.4-.8.6l-.4.2c-.2.2-.6.4-.8.4l-.4.2c-.1.1-.2.1-.2.1-.1-.1-.3-.1-.4-.1-.2 0-.4-.2-.6-.2-.1 0-.2 0-.2-.1.4-.2 1-.4 1.5-.6l.2-5.9c-.2 0-.6-.2-.8-.2-.4 0-.6-.2-1.1-.2-.4 0-.8.2-1.1.2-.2 0-.6.2-.8.2l.2 5.9h.1-.3l-.4-.2c-.2-.2-.6-.2-.8-.4l-.4-.2c-.2-.2-.6-.4-.8-.6l-.6-.6-.2-.4c-.2-.4-.4-.8-.2-1.3 0-1.7 1.7-2.8 3.4-3.4.2 0 .4-.2.6-.2.2 0 .4 0 .6-.2.2 0 .4 0 .6-.2.4 0 1.1-.2 1.5-.2h.8c.6 0 1.1 0 1.7-.2h.8c.4 0 .8-.2 1.3-.2.2 0 .6-.2.8-.2.4-.2 1.1-.2 1.5-.4.8-.2 1.7-.6 2.3-1.1.4-.2 1.1-.4 1.5-.8 1.3-.8 2.1-1.9 2.3-3.2V123.4l-.2-.4-.2-.4-.4-.2-.4-.2-.4-.2-.6-.2h-.2l-.6-.2-.4-.2h-5.5s-.8 0-1.7.6l-.4.4c-.5.5-.9 1.2-.9 1.8zm.4 16.6s.1.1.2.1l-.2-.1z"/><path fill="#121F2A" d="M297 128.2c.8 0 1.5-.2 2.1-.2l.4-21.8c.8-.6 1.3-1.7 1.3-2.8 0-2.1-1.7-3.8-3.8-3.8s-3.8 1.7-3.8 3.8c0 1.1.4 2.1 1.3 2.8l.4 21.8c.6.2 1.3.2 2.1.2zM297.4 158.8c.2.2.4.4.8.6l.6.2c1.1-1.1 1.9-2.5 1.9-3.8 0-1.1-.6-2.3-1.5-3.2h-.4l-.4.2c-.2.2-.6.4-1.1.6l.6.6.2.4c.2.4.4 1.1.6 1.7 0 .6-.2 1.3-.6 1.7 0 .3-.3.8-.7 1zM296.8 149.7l.2.2.2-.2c.2-.2.8-.6 1.5-1.1v-4.7c-.4-.2-.8-.4-1.3-.4h-.8c-.6.2-1.1.2-1.3.4v4.7c.6.4 1.1.8 1.5 1.1z"/><path fill="#121F2A" d="M293 141.8c-.6.4-1.3 1.3-1.7 2.1-.2.6-.4 1.3-.2 2.1.2 3 2.1 4.7 3.6 5.5l.8-.8c.4-.2.6-.6 1.1-.8 0 0-.4-.2-1.1-.6-.8-.8-2.1-1.9-2.3-3.2v-.6c.2-.8.6-1.5 1.3-1.9.2-.2.4-.2.8-.4l.4-.2-.4-.2c-.8-.1-1.7-.6-2.3-1zM295.3 160.7c-.6.8-1.1 1.9-1.1 3.6-.2 3.4 2.3 5.1 2.3 5.1-.2-.4-.4-.6-.6-1.1v-.2c0-.2-.2-.4-.2-.8l-.2-.4c-.2-.4-.2-.8-.2-1.3v-.4c0-.8.2-1.5.4-2.1.2-.4.4-.6.6-.8l.2-.2c-.2-.2-.6-.4-.8-.6l-.4-.8z"/><path fill="#121F2A" d="M297 168.7c1.5-2.5 1.3-4.5.6-5.7-.2-.4-.4-.8-.6-1.1-.2.2-.4.4-.6 1.1-.7 1.3-.9 3.2.6 5.7zM2.1 185.3l.4-21.8c.8-.6 1.3-1.7 1.3-2.8 0-2.1-1.7-3.8-3.8-3.8v28.4c.8.2 1.7 0 2.1 0zM1.3 213.5c0-.4-.2-1.1-.6-1.7 0-.2-.2-.4-.6-.6v4.2h.2c.8-.7 1-1.3 1-1.9z"/><path fill="#121F2A" d="M27.3 167.5c-5.5 1.3-9.8-1.3-9.8-1.3s-5.1-3-7.8-3c-3.8 0-7 5.7-7 5.7v5.3s2.8 1.5 3.8 1.5c1.5 0 1.3-1.1 1.3-1.1s1.7 1.1 3.2 1.1c1.7 0 1.3-1.3 1.3-1.3s1.1.2 2.8.2c2.3 0 1.5-1.5 1.5-1.5s1.5.4 3 .2c1.7-.2.6-1.7.6-1.7s1.1.4 2.8.4 1.3-1.3 1.3-1.3c2.1.2 4.5-1.1 4.7-2.5s-1.7-.7-1.7-.7zM3.6 195.7l-.4.2c-.2.2-.6.4-.8.4l-.4.2c-.2.2-.6.2-.8.2.2 0 .4.2.8.2.8.4 1.9.8 2.3 1.1 1.5-.8 2.5-1.7 3-2.5.2-.2.4-.6.4-.8.2-.2.2-.4.4-.8 0-.2.2-.6.2-.8v-1.3-.8c-.2-.6-.4-1.1-.8-1.7l-.6-.6h-.3c-.6.2-1.3.2-1.9.4-.6 0-1.3.2-1.9.2H1.7c1.9.6 3.4 1.5 3.4 3.4 0 .4 0 .8-.2 1.3l.2.6-.6.6c-.3 0-.5.2-.9.5zM1.9 205.8v-4.7c-.4-.2-.8-.4-1.3-.4l-.6-.2v6.4h.4c.2-.2.9-.6 1.5-1.1zM14.4 180.6l-.4-.2-.4-.2-.8-.4-.6-.2H12l-.4-.2H6.4s-.8 0-1.7.6l-.4.4c-.4.4-.6.8-.6 1.7l.2.2.2.2.2.2.4.2H6.5c.6 0 1.1-.2 1.5-.4 1.3-.4 1.9-1.1 1.9-1.1h2.5l.2.2V182.2c0 .2-.2.4-.4.6-.4.4-.8.8-1.7 1.1-.6.2-1.3.4-1.9.6-1.7.4-3.6.8-5.7 1.1H.2v2.5c.4.4.8.4 1.5.4h.8c.6 0 1.1 0 1.7-.2H5c.4 0 .8-.2 1.3-.2.2 0 .6-.2.8-.2.4-.2 1.1-.2 1.5-.4.8-.2 1.7-.6 2.3-1.1.4-.2 1.1-.4 1.5-.8 1.3-.8 2.1-1.9 2.3-3.2v-1l-.2-.4-.1-.4zM.8 220.2c-.2-.4-.6-.6-.8-.8V226c1.7-2.6 1.3-4.5.8-5.8z"/><path fill="#121F2A" d="M1.9 209.2c.2 0 .4-.2.6-.2 1.5-.8 3.4-2.5 3.6-5.5 0-.8 0-1.5-.2-2.1 0-.2-.2-.4-.2-.6-.4-.6-.8-1.1-1.3-1.5l-.4-.2-.2-.2c-.4-.2-1.1-.4-1.7-.8-.2 0-.4-.2-.6-.2s-.4-.2-.6-.2-.4-.2-.4-.2v2.8c.2 0 .4 0 .6.2.2 0 .4.2.6.2l.4.2c0-.2.2 0 .6 0 .6.4 1.1 1.1 1.3 1.9v.6c0 1.3-1.3 2.5-2.3 3.2-.4.4-.8.6-1.1.6 0 0-.2.2-.6.4v2.5c.6 0 1.3-.4 1.7-.6l.2-.3zM2.1 189.9c-.2 0-.6-.2-.8-.2-.4 0-.6-.2-1.1-.2l-.2 7c.4-.2 1.1-.4 1.9-.6l.2-6zM1.7 223.6l-.2.4c0 .2-.2.6-.4 1.1-.2.4-.2.8-.4 1.3 0 0 2.3-1.7 2.3-5.1 0-1.5-.6-2.8-1.1-3.6l-.2-.2-.2-.2c-.4-.4-.8-.6-1.3-1.1V218.5l.4.2.2.2c.2.2.4.6.6.8.2.6.4 1.3.4 2.1v.4c.1.6.1 1-.1 1.4zM.6 215.8c.2.2.4.4.8.6l.4.4c1.1-1.1 1.9-2.5 1.9-3.8 0-1.1-.6-2.3-1.5-3.2H1.9l-.4.2c-.2.2-.6.4-1.1.6l.6.6.2.4c.6.6.8 1.1.8 1.7s-.2 1.3-.6 1.7c-.1.4-.3.6-.8.8zM188 77.6h-3.1l1.4 1.7z"/><path fill="#121F2A" d="M198.4 110.9c-18.4 0-33.5-15.1-33.5-33.3h-2.5c0 19.7 16.1 35.8 36 35.8s36-16.1 36-35.8h-2.5c-.2 18.4-15 33.3-33.5 33.3z"/><path fill="#121F2A" d="M198.8 96.9c10.4 0 17.8-8.5 18-19.3h-8.7c.2 7.2-4 11.7-9.1 11.7-5.3 0-7.2-2.5-8.1-6.4h-9.3c1.6 8.7 8.1 14 17.2 14zM503.3 240.4v-23.5h.2c1.3 0 2.3-1.1 2.3-2.3s-1.1-1.7-2.3-1.7h-17c-1.3 0-2.3.4-2.3 1.7s1.1 2.3 2.3 2.3h.2v23.5l-16.1 36.5c-1.1 2.1-.8 4.5.2 6.1 1.1 1.7 3 2.5 5.5 2.5h37.5c2.3 0 4.5-.8 5.5-2.5 1.1-1.7 1.1-3.8.2-6.1l-16.2-36.5zm13.1 40.7c-.4.6-1.3 1.1-2.5 1.1h-37.5c-1.3 0-2.1-.4-2.5-1.1-.4-.6-.4-1.7 0-2.8l11.9-26.9h18.7l11.9 26.9c.4 1.1.4 2.2 0 2.8zM314.4 329.2c-.2-.6-.8-1.1-1.7-1.1-1.1 0-1.9.8-1.9 1.9s.8 1.9 1.9 1.9c.6 0 1.1-.2 1.5-.6 3.6.6 5.9 2.1 7.2 4.2 1.9 3.4 0 7.6 0 7.8 0 .2-5.5 17.6-8.5 25.4-1.1 3-3.6 4.5-7.6 4.5-2.8 0-5.7-.6-7.4-1.5-1.1-.6-2.1-2.1-3-4.2 2.5-3 4.9-6.4 6.1-11 .8-3.4.2-5.9-1.5-8.1-1.9-2.1-4.9-3.2-7.8-3.8 0-2.3-.2-4.7-.2-7v-.8c0-2.1.6-3.8 1.7-4.7 1.7-1.3 4.2-1.3 5.5-1.1.2.6.8 1.1 1.7 1.1 1.1 0 1.9-.8 1.9-1.9s-.8-1.9-1.9-1.9c-.6 0-1.1.2-1.5.6-1.5-.2-4.7-.2-6.8 1.5-1.7 1.3-2.5 3.6-2.5 6.4v.8c0 2.1 0 4.2.2 6.6-3-.4-5.5-.2-6.6-.2-1.1-2.5-3.6-4.2-6.6-4.2-4 0-7.2 3.2-7.2 7.2s3.2 7.2 7.2 7.2 7.2-3.2 7.2-7.2v-.2c1.5 0 3.8 0 6.1.2.4 7 1.1 14.2 2.8 19.3-1.5 1.5-3 3-4.5 4.2l-.8.8c-1.3 1.1-7.4 6.8-8.7 9.1-1.9 3.6-4.2 10.4 2.5 17.6 3 3.2 7.4 4.7 11.9 4.7 3.4 0 7-1.1 9.8-3 3.2-2.3 10-9.3 3-24.6 4.5-.2 7.6-2.1 9.1-5.7 3-7.6 8.3-24.4 8.5-25.4.2-.6 2.1-5.3-.2-9.5-1.7-2.7-4.7-4.4-8.9-5.3zm-37.8 22.9c-2.8 0-5.1-2.3-5.1-5.1s2.3-5.1 5.1-5.1 5.1 2.3 5.1 5.1-2.3 5.1-5.1 5.1zm15.3-4.7c2.3.4 4.5 1.3 5.7 2.8 1.3 1.5 1.5 3.4 1.1 5.7-.8 3.4-2.5 6.4-4.5 8.7-1.2-4.6-1.9-10.8-2.3-17.2zm9.3 50.1c-5.5 3.8-13.8 3.2-18.2-1.5-5.3-5.5-4-10.8-2.1-14.4.8-1.5 5.3-5.7 8.1-8.3l.8-.8c1.3-1.1 2.5-2.1 3.6-3.4.8 2.1 2.1 3.6 3.4 4.2 1.5.8 3.6 1.3 5.7 1.7 5.1 10.2 4.7 18.4-1.3 22.5zM584.5 181.7c.2.4.6.6.8.8l.8.8.6.6c2.1-1.5 4.7-2.3 7.4-2.3s5.3.8 7.4 2.3l.6-.6c.4-.2.6-.6.8-.8l.8-.8c.2-.4.4-.6.8-1.1-3-2.1-6.8-3.6-10.8-3.6h-.4c-3.8 0-7.4 1.5-10.4 3.6 1.1.4 1.3.6 1.6 1.1zM600.4 207.5v.8c0 .4.2.8.2 1.3 0 .4.6.8.8 1.3.2.4.2.8.4 1.1 3.4-1.5 6.4-4 8.5-7.6 1.9-3.4 2.8-7.4 2.3-11-.4 0-.8 0-1.3.2-.4 0-.8.2-1.3.2-.4.2-.8.2-1.3.4-.2.2-.6.2-.8.4.2 2.5-.4 5.3-1.9 7.6-1.4 2.4-3.3 4.3-5.6 5.3z"/><path fill="#121F2A" d="M613.7 177.9c0-10.2-8.1-18.4-18-19.1 7.4.6 13.4 7 13.4 14.6 0 7.8-6.1 14.2-13.8 14.6v3c2.1.4 3.8 2.1 3.8 4.5 0 .6 0 1.1-.2 1.5l2.8 1.5c4.2-6.4 12.7-8.5 19.5-4.7s9.1 12.3 5.7 19.1c4.7-9.1 1.5-20.1-7.4-25.4-2.1-1.3-4.7-2.1-7-2.3.6-2.3 1.2-4.8 1.2-7.3zM625.8 214.5c-4.2 6.4-12.7 8.5-19.5 4.5-6.8-3.8-9.1-12.3-5.7-19.3l-2.8-1.7c-.8.8-1.9 1.5-3.2 1.5-1.3 0-2.5-.6-3.4-1.5l-2.8 1.5c3.4 6.8 1.1 15.3-5.7 19.1s-15.3 1.9-19.5-4.5c5.5 8.5 16.7 11.2 25.7 6.1 2.1-1.3 4-2.8 5.5-4.7 1.5 1.9 3.4 3.6 5.5 4.9 8.9 5.4 20.4 2.6 25.9-5.9z"/><path fill="#121F2A" d="M587.2 211.8c.2-.4.4-.8.4-1.1.2-.4.2-.8.4-1.3.2-.4.2-.8.2-1.3 0-.2 0-.6.2-.8-2.3-1.1-4.2-3-5.7-5.3s-1.9-5.1-1.9-7.6c-.2-.2-.6-.2-.8-.4-.4-.2-.8-.2-1.3-.4-.4-.2-.8-.2-1.3-.2s-.8-.2-1.3-.2c-.4 3.8.2 7.6 2.3 11 2.5 3.5 5.4 6.1 8.8 7.6z"/><path fill="#121F2A" d="M562.4 212.4c-3.2-6.8-.8-15.1 5.9-18.9 6.8-3.8 15.3-1.7 19.5 4.7l2.5-1.5c-.2-.4-.2-1.1-.2-1.5 0-2.1 1.5-3.8 3.4-4.2v-3.2c-7.6-.4-13.8-6.8-13.8-14.6 0-7.6 5.9-14 13.4-14.6-10 .6-17.8 8.9-17.8 19.1 0 2.5.4 4.9 1.3 7-2.3.4-4.7 1.1-6.8 2.3-8.7 5.3-11.8 16.5-7.4 25.4zM10.8 106.6l.6-.6 13.8 3.6 1.1-3.6-14-3.8v-.4L8.3 88c0-.2-.2-.4-.2-.8.2 0 .4-.2.6-.4l9.1-9.1h-5.3l-6.6 6.6c-.2.2-.8.4-1.1.2L0 83.1v3.8L3.8 88c.4.2.8.6.8 1.1l3.8 13.8c0 .2 0 1.1-.4 1.3l-8 7.9v5.1c.2-.2.4-.2.6-.4l10.2-10.2zM601.8 498.8h-16.1c-1.3 0-2.1.4-2.1 1.5 0 1.3 1.1 2.1 2.1 2.1h.2v32h2.8v-10.6h10.2v10.6h2.8v-32h.2c1.3 0 2.1-1.1 2.1-2.1.2-1.3-.9-1.5-2.2-1.5zM517.3 505.2H506v-1.1c0-2.5-1.1-4.7-2.5-6.4 4.9-1.3 8.9-4 11.9-8.1h3.6v-2.5h-19.7v2.5h3.8c-.8.4-1.9.6-3 .8-7.6 1.3-14.8-3.8-16.1-11.4-.8-4.5.6-8.9 3.8-12.1l12.9 12.9 7.4-7.4-31.1-31.3-7.4 7.4 12.9 12.9c-4.9 4.9-7 11.9-5.9 18.9 1.5 8.1 7.2 14.4 14.6 17-1.9 1.7-3 4-3 6.6v1.1h-9.3c-1.5 0-2.8 1.3-2.8 2.8v2.8c0 1.5 1.3 2.8 2.8 2.8h38.4c1.5 0 2.8-1.3 2.8-2.8v-2.8c-.1-1.4-1.4-2.6-2.8-2.6zm-15.3 0h-9.8c0-.4-.2-.8-.2-1.1 0-2.8 2.3-5.1 5.1-5.1s5.1 2.3 5.1 5.1c0 .4 0 .9-.2 1.1z"/><circle fill="#121F2A" cx="692.8" cy="477.4" r="5.3"/><path fill="#121F2A" d="M711.7 499.9c6.6 0 11.2-2.1 13.1-5.7 2.3-4.5.2-10.6-4.9-16.7.2-.2.4-.6.8-.8 4.9-6.1 6.4-11.7 4-15.9-1.9-3.6-6.6-5.7-12.9-5.7-1.7 0-3.6.2-5.7.4-3-8.7-7.8-14-13.4-14-5.5 0-10.4 5.5-13.4 14.2-1.9-.2-3.8-.4-5.5-.4-6.6 0-11.2 2.1-13.1 5.7-2.3 4.5-.2 10.6 4.9 16.7-.2.2-.4.6-.8.8-4.9 6.1-6.4 11.7-4 15.9 1.9 3.6 6.6 5.7 12.9 5.7 1.7 0 3.6-.2 5.7-.4 3 8.7 7.8 14 13.4 14 5.5 0 10.4-5.5 13.4-14.2 1.9.4 3.8.4 5.5.4zm10.8-7c-1.5 2.8-5.3 4.2-10.8 4.2-1.5 0-3.2-.2-4.7-.4.8-3 1.5-6.1 1.9-9.8 3.6-2.5 6.6-5.1 9.1-7.8 4.5 5.5 6.4 10.4 4.5 13.8zm-13.2-21.7c2.8 1.9 5.1 4 7 6.1-2.1 2.1-4.5 4.2-7 6.1.2-1.9.2-4 .2-6.1 0-2 0-3.9-.2-6.1zm2.6-13.5c5.5 0 9.1 1.5 10.6 4.2 1.7 3.2.2 7.8-3.8 12.9-.2.2-.4.4-.4.6-2.5-2.5-5.7-5.3-9.1-7.6-.4-3.4-1.1-6.8-1.9-9.8 1.4-.3 3.1-.3 4.6-.3zm-6 8c-1.7-1.1-3.6-2.1-5.5-3.2-1.5-.6-2.8-1.5-4.2-1.9 2.8-.8 5.3-1.7 7.8-2.1.9 2.1 1.5 4.7 1.9 7.2zm-13.1-21.8c4.2 0 8.1 4.7 10.6 11.9-3.4.6-7 1.9-10.8 3.2-3.6-1.5-7.2-2.5-10.6-3.2 2.7-7.2 6.5-11.9 10.8-11.9zm-11.5 14.6c2.5.4 5.1 1.3 7.8 2.1-1.5.6-2.8 1.3-4.2 2.1-1.9 1.1-3.6 1.9-5.3 3.2.5-2.7.9-5.3 1.7-7.4zm-7.6 38.8c-5.5 0-9.1-1.5-10.6-4.2-1.7-3.2-.2-7.8 3.8-12.9.2-.2.4-.4.4-.6 2.5 2.5 5.7 5.3 9.1 7.6.4 3.4 1.1 6.8 1.9 9.8-1.4.3-3.1.3-4.6.3zm2.6-13.5c-2.8-1.9-5.1-4-7-6.1 2.1-2.1 4.5-4.2 7-6.1-.2 1.9-.2 4-.2 6.1-.1 2-.1 3.9.2 6.1zm.2-15.7c-3.6 2.5-6.6 5.1-9.1 7.8-4.2-5.5-6.1-10.4-4.5-13.8 1.5-2.8 5.3-4.2 10.8-4.2 1.5 0 3.2.2 4.7.4-.9 3-1.5 6.2-1.9 9.8zm2.7 17.8c-.2-2.8-.4-5.5-.4-8.3 0-2.8.2-5.5.4-8.3 2.1-1.5 4.7-3 7-4.2 2.1-1.1 4.5-2.1 6.6-3 2.1.8 4.5 1.9 6.6 3 2.5 1.3 4.9 2.8 7.2 4.2.2 2.8.4 5.5.4 8.3s-.2 5.5-.4 8.3c-2.1 1.5-4.7 3-7 4.2-2.1 1.1-4.5 2.1-6.6 3-2.1-.8-4.5-1.9-6.6-3-2.7-1.5-5.1-2.7-7.2-4.2zm.4 3.4c1.7 1.1 3.6 2.1 5.5 3.2 1.5.6 2.8 1.5 4.2 1.9-2.8.8-5.3 1.7-7.8 2.1-.8-2.1-1.4-4.7-1.9-7.2zm13.2 21.8c-4.2 0-8.1-4.7-10.6-11.9 3.4-.6 7-1.9 10.8-3.2 3.6 1.5 7.2 2.5 10.6 3.2-2.8 7.2-6.6 11.9-10.8 11.9zm11.4-14.6c-2.5-.4-5.1-1.3-7.8-2.1 1.5-.6 2.8-1.3 4.2-2.1 1.9-1.1 3.6-1.9 5.3-3.2-.4 2.7-1 5.3-1.7 7.4zM565.2 431.6v11l7.2 7.2h11v-9.1l-8.9-9.1zM604.4 392.6v9.1l8.9 9.1h9.3v-11.2l-7.2-7zM604.4 440.7v9.1h11l7.2-7v-11.2h-9.1zM565.2 399.8v11h9.1l9.1-9.1v-9.1h-11z"/><path fill="#121F2A" d="M618.2 422.3l-3.6 4.9h8.1V416.1h-8.1l3.6 4.9h-9.8c-.4-7.6-6.4-13.6-14-14v-10l4.9 3.6v-8.1H588.2v8.1l4.9-3.6v10c-7.6.4-13.6 6.4-14 14h-9.8l3.6-4.9H565V427.2h8.1l-3.6-4.9h9.8c.4 7.6 6.4 13.6 14 14v9.3l-4.9-3.6v8.1H599.5V442l-4.9 3.6v-9.3c7.6-.4 13.6-6.4 14-14h9.6zm-17-.4l-7.2 8.3-7.2-8.1c-.6-.6-.8-1.7-.8-2.5 0-2.3 1.9-4 4-4s3.8 1.5 4 3.4c.2-1.9 1.9-3.4 4-3.4 2.3 0 4 1.9 4 4 .1.6-.4 1.6-.8 2.3zM391.8 427.6c-.6.4-1.3 1.3-1.7 2.1-.2.6-.4 1.3-.2 2.1.2 3 2.1 4.7 3.6 5.5l.8-.8c.4-.2.6-.6 1.1-.8 0 0-.4-.2-1.1-.6-.8-.8-2.1-1.9-2.3-3.2v-.6c.2-.8.6-1.5 1.3-1.9.2-.2.4-.2.8-.4l.4-.2-.4-.2c-.9-.2-1.7-.6-2.3-1zM391.1 407.6c-.4 0-1.3-.2-1.3-.2h-5.2l-.6.2h-.2l-.6.2-.4.2-.4.2-.4.2-.2.4-.2.4v1c0 .4.2.8.4 1.1.2.2.4.6.8 1.1 1.5 1.5 4.2 2.5 6.6 3.2 1.1-.8 2.3-1.5 3.8-1.9h.2c-2.1-.2-4.2-.4-5.7-1.1-.6-.2-1.3-.4-1.9-.6-.6-.4-1.3-.8-1.7-1.1-.2-.2-.2-.4-.4-.6v-.5l.2-.2.2-.2H385.9s1.1 1.1 3.4 1.3H391.1l.4-.2.2-.2.2-.2.2-.2c0-.6-.4-1.3-.6-1.7l-.4-.6zM392.2 389.2c0 1.1.4 2.1 1.3 2.8l.4 21.8c.4 0 1.3 0 2.1.2.8 0 1.5-.2 2.1-.2l.4-21.8c.8-.6 1.3-1.7 1.3-2.8 0-2.1-1.7-3.8-3.8-3.8s-3.8 1.9-3.8 3.8z"/><path fill="#121F2A" d="M395.8 435.4l.2.2.2-.2c.2-.2.8-.6 1.5-1.1v-4.7c-.4-.2-.8-.4-1.3-.4h-.8c-.6.2-1.1.2-1.3.4v4.7c.6.5 1.1.9 1.5 1.1zM377.6 401.9s-.8 1.5 1.5 1.5c1.7 0 2.8-.2 2.8-.2s-.4 1.3 1.3 1.3c1.5 0 3.2-1.1 3.2-1.1s-.2 1.1 1.3 1.1c1.3 0 3.8-1.5 3.8-1.5v-5.3s-3.2-5.7-7-5.7c-2.8 0-7.8 3-7.8 3s-4.5 2.5-9.8 1.3c0 0-1.7-.6-1.5.8.2 1.5 2.5 2.5 4.7 2.8 0 0-.4 1.3 1.3 1.3 1.7 0 2.8-.4 2.8-.4s-1.1 1.5.6 1.7c1.3.1 2.8-.6 2.8-.6zM400 426.7c.8-.4 1.5-.8 1.9-1.3s.8-.8 1.3-1.3c.2-.2.4-.6.4-.8.2-.2.2-.4.4-.8 0-.2.2-.6.2-.8v-1.3-.8c-.2-.6-.4-1.1-.8-1.7l-.6-.6h-.2c-.6.2-1.3.2-1.9.4-.6 0-1.3.2-1.9.2h-1.1c1.9.6 3.4 1.5 3.4 3.4 0 .4 0 .8-.2 1.3l-.2.4-.6.6c-.2.2-.4.4-.8.6l-.4.2c-.2.2-.6.4-.8.4l-.4.2c-.2.2-.6.2-.8.2.2 0 .4.2.8.2 1.1.7 1.9 1.1 2.3 1.3z"/><path fill="#121F2A" d="M397.9 418.5c-.2 0-.6-.2-.8-.2-.4 0-.6-.2-1.1-.2s-.8.2-1.1.2c-.2 0-.6.2-.8.2l.2 5.9c.6.4 1.5.6 1.7.6.4-.2 1.1-.4 1.7-.6l.2-5.9zM426.5 397.1c.2-1.5-1.5-.8-1.5-.8-5.5 1.3-9.8-1.3-9.8-1.3s-5.1-3-7.8-3c-3.8 0-7 5.7-7 5.7v5.3s2.8 1.5 3.8 1.5c1.5 0 1.3-1.1 1.3-1.1s1.7 1.1 3.2 1.1c1.7 0 1.3-1.3 1.3-1.3s1.1.2 2.8.2c2.3 0 1.5-1.5 1.5-1.5s1.5.4 3 .2c1.7-.2.6-1.7.6-1.7s1.1.4 2.8.4 1.3-1.3 1.3-1.3c2 .1 4.3-1 4.5-2.4z"/><path fill="#121F2A" d="M408.3 414.2c1.3-.8 2.1-1.9 2.3-3.2v-1l-.2-.4-.2-.4-.4-.2-.4-.2-.4-.2-.6-.2h-.2l-.6-.2H402.4s-.8 0-1.7.6l-.4.4c-.4.4-.6.8-.6 1.7l.2.2.2.2.2.2.4.2H402.5c2.3-.2 3.4-1.3 3.4-1.3H407.7l.2.2.2.2V411.4c0 .2-.2.4-.4.6-.4.4-.8.8-1.7 1.1-.6.2-1.3.4-1.9.6-1.7.4-3.6.8-5.7 1.1H395c-.2 0-.6 0-.8.2h-.2c-.2 0-.6.2-.8.2s-.6.2-.8.2c-.2 0-.6.2-.8.4-.4.2-1.1.4-1.5.8l-.4.4-.2.2h-.5l-.6.6c-.4.4-.6 1.1-.8 1.7v2.1c0 .2.2.6.2.8s.2.4.4.8c.2.2.2.4.4.8.6.8 1.5 1.9 3 2.5l.2.2.4.2.2.2c.4.2.8.4 1.5.6h.2c.4.2 1.1.2 1.5.4.2 0 .4 0 .6.2.2 0 .4.2.6.2l.4.2c.2.2.6.2.8.4.6.4 1.1 1.1 1.3 1.9v.6c0 1.3-1.3 2.5-2.3 3.2-.4.4-.8.6-1.1.6 0 0-.2.2-.6.4-.4.2-1.1.6-1.5 1.3l-.2.2-.4.4c-.8.8-1.5 2.1-1.5 3.2 0 1.3 1.1 2.8 1.9 3.8l.4.4c.4.4 1.1.8 1.3 1.3l.2.2.4.2.2.2c.2.2.4.6.6.8.2.2.2.6.2.8 0 .4.2.6.2 1.1v.4c0 .4 0 .8-.2 1.3l-.2.4c0 .2-.1.5-.3.8.9-2 .6-3.6.1-4.6-.2-.4-.4-.8-.6-1.1-.2.2-.4.4-.6 1.1-.6 1.3-1 3.1.6 5.6-.1.1-.1.2-.2.3 0 0 2.3-1.7 2.3-5.1 0-1.5-.6-2.8-1.1-3.6l-.2-.2-.2-.2c-.4-.4-.8-.6-1.3-1.1-.2-.2-.4-.2-.6-.4-.2-.2-.6-.4-.8-.8-.4-.4-.6-1.1-.6-1.7s.2-1.1.6-1.7l.2-.4.6-.6c.2-.2.4-.2.6-.4.6-.4 1.1-.6 1.5-.8l.2-.2c.2 0 .4-.2.6-.4 1.5-.8 3.4-2.5 3.6-5.5 0-.8 0-1.5-.2-2.1 0-.2-.2-.4-.2-.6-.4-.6-.8-1.1-1.3-1.5l-.4-.2-.2-.2c-.4-.2-1.1-.4-1.7-.8-.2 0-.4-.2-.6-.2-.2 0-.4-.2-.6-.2s-.4-.2-.4-.2h-.2c-.2 0-.4-.2-.8-.2-.2 0-.4-.2-.8-.2l-.4-.2c-.2-.2-.6-.2-.8-.4l-.5.2c-.2-.2-.6-.4-.8-.6l-.6-.6-.2-.4c-.2-.4-.4-.8-.2-1.3 0-1.7 1.7-2.8 3.4-3.4.2 0 .4-.2.6-.2.2 0 .4 0 .6-.2.2 0 .4 0 .6-.2.4 0 1.1-.2 1.5-.2h.8c.6 0 1.1 0 1.7-.2h.8c.4 0 .8-.2 1.3-.2.2 0 .6-.2.8-.2.4-.2 1.1-.2 1.5-.4 1.5 0 2.3-.4 3-.6.4-.4 1.1-.7 1.5-1.1z"/><path fill="#121F2A" d="M394.5 448.8c.2-.4.4-.6.6-.8l.2-.2c-.2-.2-.6-.4-.8-.6l-.4-.6c-.6.8-1.1 1.9-1.1 3.6-.2 3.4 2.3 5.1 2.3 5.1-.2-.4-.4-.6-.6-1.1v-.2c0-.2-.2-.4-.2-.8l-.2-.4c-.2-.4-.2-.8-.2-1.3v-.4c0-1.1.2-1.7.4-2.3zM397.3 442.2c0-.6-.2-1.3-.6-1.7l-.6-.6-.6.6c-.4.6-.6 1.1-.6 1.7 0 .6.4 1.3 1.1 1.9l.2.2.2-.2c.7-.6.9-1.3.9-1.9z"/><path fill="#121F2A" d="M397.7 445.4c1.1-1.1 1.9-2.5 1.9-3.8 0-1.1-.6-2.3-1.5-3.2h-.4l-.4.2c-.2.2-.6.4-1.1.6l.6.6.2.4c.2.4.4 1.1.6 1.7 0 .6-.2 1.3-.6 1.7-.2.2-.4.6-.8.8.2.2.4.4.8.6l.7.4zM406.6 529.8l-.4-.2v-21.8l.4-.2c1.5-.8 2.5-2.3 2.5-4v-.6c0-2.3-1.9-4.5-4.5-4.5h-17.2c-2.3 0-4.5 1.9-4.5 4.5v.4c0 1.7.8 3.2 2.5 4l.4.2v21.8l-.4.2c-2.3 1.3-4.2 3-5.7 4.7h4.5l.2-.2c.4-.4.8-.6 1.3-.8.4-.2.8-.6 1.5-.8l.2-.2c.2-.2.4-.2.6-.4h.2c.2 0 .4-.2.6-.2v-13.6h13.8v13.6c.2 0 .4.2.6.2h.2c.2.2.4.2.6.4l.2.2c.4.2 1.1.6 1.5.8.4.2.8.6 1.3.8l.2.2h4.5c-1.1-1.6-3-3.3-5.1-4.5zM319.3 449c0-.8-.8-1.7-1.7-1.7s-1.7.8-1.7 1.7c0 .2-.2 15.1-19.3 28l-.4.2-.4-.2c-18.9-12.7-19.3-27.8-19.3-28 0-.8-.8-1.7-1.7-1.7-.8 0-1.7.8-1.7 1.7 0 .6.2 16.3 20.1 30.1-21.2 15.7-20.1 28-20.1 28.6 0 .8.8 1.5 1.7 1.5h.2c.8 0 1.5-.8 1.5-1.9 0-.2-.8-11.7 19.5-26.3 20.4 14.6 19.5 26.1 19.5 26.1-.2.8.6 1.7 1.5 1.9h.2c.8 0 1.5-.6 1.7-1.5 0-.6 1.3-12.9-20.1-28.6 20.2-13.4 20.5-29.1 20.5-29.9z"/><path fill="#121F2A" d="M282.6 454.1c0 .8.8 1.7 1.7 1.7h24c.8 0 1.7-.8 1.7-1.7s-.8-1.7-1.7-1.7h-24c-.9 0-1.7.8-1.7 1.7zM306.3 461.3c0-.8-.8-1.7-1.7-1.7h-17c-.8 0-1.7.8-1.7 1.7 0 .8.8 1.7 1.7 1.7h17c1.1 0 1.7-.9 1.7-1.7zM294 466.6c-.8 0-1.7.8-1.7 1.7 0 .8.8 1.7 1.7 1.7h4.5c.8 0 1.7-.8 1.7-1.7s-.8-1.7-1.7-1.7H294zM308.2 503.7h-24c-.8 0-1.7.8-1.7 1.7 0 .8.8 1.7 1.7 1.7h24c.8 0 1.7-.8 1.7-1.7 0-.9-.8-1.7-1.7-1.7zM286.2 498.2c0 .8.8 1.7 1.7 1.7h17c.8 0 1.7-.8 1.7-1.7s-.8-1.7-1.7-1.7h-17c-.9.2-1.7.8-1.7 1.7zM298.5 492.9c.8 0 1.7-.8 1.7-1.7s-.8-1.7-1.7-1.7H294c-.8 0-1.7.8-1.7 1.7s.8 1.7 1.7 1.7h4.5zM198.8 515.1h-1c-6.6.2-15.3 4.7-15.3 13.6H180l4.9 5.9h3.4l5.3-5.9h-2.8c.6-3.8 4-6.4 7.8-5.9h.4c6.4 0 8.9 4.9 9.1 11.9h8.7c.1-11.7-7.4-19.6-18-19.6zM14 396c0-.8-.8-1.7-1.7-1.7H0v3.4h12.3c.8 0 1.7-.9 1.7-1.7zM10.4 403c0-.8-.8-1.7-1.7-1.7H0v3.4h8.7c.8 0 1.7-.7 1.7-1.7zM4.2 410.2c0-.8-.8-1.7-1.7-1.7H0v3.4h2.5c.9 0 1.7-.9 1.7-1.7zM23.3 390.9c0-.8-.8-1.7-1.7-1.7s-1.7.8-1.7 1.7c0 .2-.2 15.1-19.3 28l-.4.2-.2-.2V423.5l.2-.2c20.4 14.6 19.5 26.1 19.5 26.1-.2.8.6 1.7 1.5 1.9h.2c.8 0 1.5-.6 1.7-1.5 0-.6 1.3-12.9-20.1-28.6 19.9-14 20.3-29.7 20.3-30.3zM14 447.3c0-.8-.8-1.7-1.7-1.7H0v3.4h12.3c.8 0 1.7-.9 1.7-1.7zM10.4 440.1c0-.8-.8-1.7-1.7-1.7H0v3.4h8.7c.8 0 1.7-.7 1.7-1.7zM4.2 432.9c0-.8-.8-1.7-1.7-1.7H0v3.4h2.5c.9 0 1.7-.7 1.7-1.7zM16.3 514.9c-.4-1.5-1.9-3.2-3.6-3.6L0 507.9v3.8l11.9 3.2c.2 0 .8.6.8.8l3.8 14c0 .2 0 1.1-.4 1.3l-3.4 3.4H18l.8-.8c1.1-1.1 1.7-3.2 1.3-4.9l-3.8-13.8zM107.5 468.9v-23.5h.2c1.3 0 2.3-1.1 2.3-2.3 0-1.3-1.1-1.7-2.3-1.7h-17c-1.3 0-2.3.4-2.3 1.7 0 1.3 1.1 2.3 2.3 2.3h.2v23.5l-16.1 36.5c-1.1 2.1-.8 4.5.2 6.1 1.1 1.7 3 2.5 5.5 2.5H118c2.3 0 4.5-.8 5.5-2.5s1.1-3.8.2-6.1l-16.2-36.5zm13.1 40.7c-.4.6-1.3 1.1-2.5 1.1H80.3c-1.3 0-2.1-.4-2.5-1.1-.4-.6-.4-1.7 0-2.8l11.9-26.9h18.7l11.9 26.9c.7 1.1.7 2.2.3 2.8zM204.6 436.1v.8c0 .4.2.8.2 1.3s.2.8.4 1.3.2.8.4 1.1c3.4-1.5 6.4-4 8.5-7.6 1.9-3.4 2.8-7.4 2.3-11-.4 0-.8 0-1.3.2 0 .2-.4.2-.8.2-.4.2-.8.2-1.3.4-.2.2-.6.2-.8.4.2 2.5-.4 5.3-1.9 7.6s-3.4 4.2-5.7 5.3z"/><path fill="#121F2A" d="M230 443.1c-4.2 6.4-12.7 8.5-19.5 4.5-6.8-3.8-9.1-12.3-5.7-19.3l-2.8-1.7c-.8.8-1.9 1.5-3.2 1.5-1.3 0-2.5-.6-3.4-1.5l-2.8 1.5c3.4 6.8 1.1 15.3-5.7 19.1-6.8 3.8-15.3 1.9-19.5-4.5 5.5 8.5 16.7 11.2 25.7 6.1 2.1-1.3 4-2.8 5.5-4.7 1.5 1.9 3.4 3.6 5.5 4.9 9 5.3 20.4 2.5 25.9-5.9z"/><path fill="#121F2A" d="M191.2 440.3c.2-.4.4-.8.4-1.1.2-.4.2-.8.4-1.3s.2-.8.2-1.3c0-.2 0-.6.2-.8-2.1-1.1-4-3-5.5-5.3s-1.9-5.1-1.9-7.6c-.2-.2-.6-.2-.8-.4-.4-.2-.8-.2-1.3-.4-.4-.2-.8-.2-1.3-.2-.4 0-.8-.2-1.3-.2-.4 3.8.2 7.6 2.3 11 2 3.4 5.2 5.9 8.6 7.6z"/><path fill="#121F2A" d="M166.2 440.9c-3-6.8-.4-15.1 6.1-18.9 6.8-3.8 15.3-1.7 19.5 4.7l2.5-1.5c-.2-.4-.2-1.1-.2-1.5 0-2.1 1.5-3.8 3.4-4.2v-3c-7.6-.4-13.8-6.8-13.8-14.6 0-7.6 5.9-14 13.4-14.6-10 .6-17.8 8.9-17.8 19.1 0 2.5.4 4.9 1.3 7-2.3.4-4.7 1.1-6.8 2.3-8.9 5.1-12.1 16.1-7.6 25.2z"/><path fill="#121F2A" d="M188.7 410.2c.2.4.6.6.8.8l.8.8.6.6c2.1-1.5 4.7-2.3 7.4-2.3 2.8 0 5.3.8 7.4 2.3l.6-.6c.4-.2.6-.6.8-.8l.8-.8c.2-.4.4-.6.8-1.1-3-2.1-6.8-3.6-10.8-3.6h.1-.2c-3.8 0-7.4 1.5-10.4 3.6.8.5 1.1.7 1.3 1.1z"/><path fill="#121F2A" d="M216.4 413.8c.8-2.3 1.5-4.7 1.5-7.2 0-10.2-8.1-18.4-18-19.1 7.4.6 13.4 7 13.4 14.6 0 7.8-6.1 14.2-13.8 14.6v3c2.1.4 3.8 2.1 3.8 4.5 0 .6 0 1.1-.2 1.5l2.8 1.5c4.2-6.4 12.7-8.5 19.5-4.7 6.3 3.6 8.8 11.1 6.3 17.7 3.5-8.8.2-19.2-8.2-24-2.2-1.3-4.7-2.2-7.1-2.4z"/><path fill="#121F2A" d="M231.7 440.1c-.2.5-.4 1-.6 1.4.2-.4.4-.9.6-1.4zM730.9 294.9l1.7 1 4.3-7.2-1.7-1zM747.7 266l1.7.9 4.2-7.2-1.7-.9zM739.2 280.5l1.9 1 4-7.2-1.6-1.1zM726.7 302.3l-1.5 2.5H722v2.2h3.2l1.5 2.7 1.7-1.1-1.5-2.7 1.5-2.8zM787.8 362.1h4.5v1.9h-4.5zM757.9 245.1h-.2l-1.7 1 1.4 2.8-1.4 2.5 1.9 1.1 1.5-2.8h3.1v-1.9h-3.1zM787.8 247.8h4.5v1.9h-4.5zM770.8 362.1h8.5v1.9h-8.5zM739.2 394.7l1.9 1.1 4-7.2-1.6-1.1zM730.9 409.3l1.7.9 4.3-7.2-1.7-1.1zM747.7 380.3l1.7 1.1 4.2-7.5-1.7-.8zM757.9 359.3l-1.9 1.1 1.7 2.7-1.7 2.6 1.9 1 1.5-2.7h3.1v-1.9h-3.1zM739.2 331.3l4.3 7.2 1.6-.8-4-7.4zM730.9 316.9l4.3 7.2 1.7-1-4.3-7.2zM747.7 346l4.2 7.2 1.7-1.1-4.2-7.2zM739.2 166.2l1.7 1.1h.2l4-7.3-1.6-1zM751.7 144.6v-.2l-4.2 7.4 1.9.8 4.2-7.2-1.7-1zM735 173.4l-4.3 7.2 1.9 1.1 4.3-7.2-1.7-1.1zM726.7 188l-1.7 2.6h-3v2.1h3l1.7 2.7 1.7-1-1.5-2.8 1.5-2.7zM747.5 231.7l4.2 7.2h.2l1.7-1.1-4.2-7.2zM730.7 202.7l4.3 7.2h.2l1.7-1.1-4.3-7.2zM740.9 216.2v-.2l-1.7 1.1 4.3 7.2 1.6-.9-4-7.4zM779.3 249.7v-1.9h-8.5v1.9h8.3zM787.8 133.5h4.5v1.9h-4.5zM779.3 135.5v-2h-8.5v2h8.3zM757.7 138.2h.2l1.5-2.7h3.1v-2h-3.1l-1.5-2.7-1.9 1 1.4 2.6-1.4 2.7zM726.7 77.6H722v.8h3.2l1.5 2.6 1.7-.9-1.3-2.5zM730.9 88.4l4.3 7.2 1.7-1.1-4.3-7.2zM739.2 102.8l4.3 7.2 1.6-1-4-7.3zM747.7 117.2l4.2 7.4 1.7-1-4.2-7.2zM787.8 476.3h4.5v2.1h-4.5zM747.7 460.2l4.2 7.2 1.7-1-4.2-7.2zM730.9 431.2l4.3 7.2 1.7-1.1-4.3-7.2zM770.8 476.3h8.5v2.1h-8.5zM725.2 533.6H722v.8h4.9l1.5-2.5-1.7-1.1zM730.9 523.6l1.7.9 4.3-7.3-1.7-.8zM739.2 509l1.9 1 4-7.2-1.6-1zM747.7 494.6l1.7 1 4.2-7.4-1.7-.8zM757.9 473.6l-1.9 1 1.7 2.8-1.7 2.8 1.9.8 1.5-2.5h3.1v-2.2h-3.1zM739.2 445.6l4.3 7.4 1.6-1-4-7.3zM726.7 416.6l-1.5 2.7H722v1.9h3.2l1.5 2.8 1.7-1.1-1.5-2.7 1.5-2.6zM658.9 195.4l1.7-2.7h2.9v-2.1h-2.9l-1.7-2.6-1.9.9 1.7 2.7-1.7 2.8zM671.8 190.6h8.5v2.1h-8.5zM705.3 190.6h8.5v2.1h-8.5zM688.5 190.6h8.5v2.1h-8.5zM627.7 245.1l-1.5 2.7H623v1.9H626.2l1.5 2.8 1.9-1.1-1.7-2.5 1.7-2.8zM541.4 394.7l1.7 1.1 4.3-7.2-1.9-1.1zM631.9 373.9l4.3 7.5 1.7-1.1-4.3-7.2zM648.7 403l4.2 7.2 1.7-.9-4.2-7.4zM640.4 388.6l4.1 7.2 1.6-1.1-4-7.2zM688.5 304.8h8.5v2.1h-8.5zM705.3 304.8h8.5v2.1h-8.5zM671.8 304.8h8.5v2.1h-8.5zM658.9 309.7l1.5-2.7h3.1v-2.2h-3.1l-1.5-2.5-1.9.8 1.7 2.8-1.7 2.7zM631.9 352.1l1.7 1.1 4.3-7.2-1.7-1.1zM648.7 323.1l1.7 1 4.2-7.2-1.7-1zM559.9 252.5l1.7-2.8h2.9v-1.9h-2.9l-1.7-2.7-1.7 1 1.5 2.6-1.5 2.7zM572.8 249.7h8.5v-1.9h-8.5zM606.3 249.7h8.5v-1.9h-8.5zM589.5 249.7h8.5v-1.9h-8.5zM640.4 274.3l4.1 7.2 1.6-1-4-7.3zM631.9 259.7l4.3 7.2 1.7-.9-4.3-7.2zM648.7 288.7l4.2 7.2 1.7-1-4.2-7.2zM640.4 337.7l1.7.8 4-7.2-1.6-1zM627.7 359.3l-1.5 2.8H623v1.9h3.2l1.5 2.7 1.9-1-1.7-2.6 1.7-2.7zM572.8 362.1h8.3v2.1h-8.3zM606.3 362.1h8.3v2.1h-8.3zM589.5 362.1h8.3v2.1h-8.3zM442.4 388.6l4.3 7.2 1.7-1.1-4.3-7.2zM456.6 409.3l-4.2-7.4-1.7 1.1 4.2 7.2zM439.9 380.3l-4-7.2-2 .8 4.3 7.5zM549.7 380.3l1.7 1.1 4.2-7.5-1.7-.8zM532.9 409.3l1.7.9 4.3-7.2-1.7-1.1zM559.9 359.3l-1.7 1.1 1.5 2.7-1.5 2.6 1.7 1 1.5-2.7h3.1v-1.9h-3.1zM541.4 331.3l4.1 7.2 1.9-.8-4.3-7.4zM549.7 346l4.2 7.2 1.7-1.1-4.2-7.2zM532.9 316.9l4.3 7.2 1.7-1-4.3-7.2zM343.4 394.7l1.7 1.1h.2l4.1-7.2-1.7-1.1zM355.9 373.1l-4.2 7.2 1.9 1.1 4.2-7.5-1.7-.8zM339.2 402.1v-.2l-4.3 7.4 2 .9 4.2-7.2-1.7-1.1zM55.1 403l4 7.2 2-.9-4.3-7.4zM38.4 373.9l4 7.5 1.9-1.1-4.2-7.2zM137.4 409.3l1.7.9 4.2-7.2-1.9-1.1zM158.1 373.1l-4.2 7.2h.2l1.7 1.1 4.3-7.5h-.5zM164.1 366.7l1.7-2.7h2.9v-1.9h-2.9l-1.7-2.8-1.7 1.1 1.5 2.7-1.5 2.6zM145.6 331.3l4.1 7.2h.2l1.7-.8-4.3-7.4zM46.6 388.6l4.3 7.2 1.7-1.1-4.3-7.2zM39.9 258.8l-1.7.9 4.2 7.2 1.9-.9-4.2-7.2zM56.6 287.7l-1.7 1 4.2 7.2 2-1-4.3-7.2zM55.1 323.1l1.7 1 4.3-7.2-2-1zM46.6 337.7l1.7.8 4.3-7.2-1.7-1zM38.4 352.1l1.7 1.1 4.2-7.2-1.9-1.1zM34.1 359.3l-1.5 2.8h-3.1v1.9h3.1l1.5 2.7 1.7-1-1.5-2.6 1.5-2.7zM0 362.1h4.2v1.9H0zM12.7 362.1H21v1.9h-8.3zM254.6 402.1v-.2l-1.7 1.1 4.2 7.2 1.7-.9-4-7.4zM237.9 373.1l-1.7.8 4.2 7.5 1.7-1.1-4-7.2zM244.4 388.6l4.3 7.2h.2l1.7-1.1-4.3-7.2zM227.3 364h3.1l1.5 2.7h.2l1.7-1-1.7-2.8 1.5-2.5-1.7-1.1-1.5 2.8h-3.1zM145.6 394.7l1.7 1.1 4.3-7.2-1.7-1.1zM177 364h8.5v-1.9H177zM202.2 364v-1.9h-8.4v1.9h.2zM210.5 364h8.5v-1.9h-8.5zM559.9 138.2l1.7-2.7h2.9v-2h-2.9l-1.7-2.7-1.7 1 1.5 2.8-1.5 2.5zM541.4 102.8l4.1 7.2h.2l1.7-1-4.3-7.3zM551.4 116.4l-1.7.8 4.2 7.4 1.9-1-4.2-7.2zM534.6 87.3l-1.7 1.1 4.3 7.2 1.9-1.1-4.2-7.2zM626.2 135.5l1.5 2.7h.2l1.7-1.1-1.7-2.7 1.7-2.6-1.9-1-1.5 2.7H623v2h.3zM614.8 135.5v-2h-8.5v2h.2zM598 133.5h-8.5v2h8.5zM581.3 135.5v-2h-8.5v2h.2zM646.1 102.8l-1.6-1.1-4.3 7.3 1.9 1zM631.9 123.6l1.7 1 4.3-7.4-1.7-.8zM648.7 94.5l1.7 1.1 4.2-7.2-1.7-1.1zM660.4 78.4h3.1v-.8H658.4l-1.4 2.5 1.9.9zM705.3 77.6h8.5v.8h-8.5zM671.8 77.6h8.5v.8h-8.5zM688.5 77.6h8.5v.8h-8.5zM343.4 280.5l1.9 1 4.1-7.2-1.7-1.1zM450.9 288.7l4 7.2 1.9-1-4.2-7.2zM434.2 259.7l4 7.2 1.9-.9-4.2-7.2zM450.7 323.1l1.7 1h.2l4.2-7.2-1.9-1zM442.4 337.7l1.7.8 4.3-7.2-1.7-1zM433.9 352.1l2 1.1 4.2-7.2-1.9-1.1zM429.9 359.3l-1.7 2.8h-2.9v1.9h2.9l1.7 2.7 1.7-1-1.5-2.6 1.5-2.7zM391.8 362.1h8.3v1.9h-8.3zM408.5 362.1h8.3v1.9h-8.3zM375 364h8.5v-1.9H375zM528.9 302.3h-.2l-1.5 2.5H524v2.2H527.2l1.5 2.7 1.9-1.1-1.5-2.5 1.5-3zM549.7 266l1.7.9h.2l4.2-7.2-1.9-.9zM532.9 294.9l1.7 1h.3l4.2-7.2-1.9-1zM545.5 273.2l-4.1 7.3 1.7 1 4.3-7.2-1.7-1.1zM442.4 274.3l4.3 7.2 1.7-1-4.3-7.3zM460.9 302.3l-1.7.8 1.5 2.8-1.5 2.7 1.7 1.1 1.7-2.7h2.9v-2.2h-2.9zM499 304.8h-8.5v2.2h8.5zM515.8 304.8h-8.5v2.2h8.5zM482.3 304.8h-8.5v2.2h8.5zM335.2 202.7l4.2 7.2 1.7-1.1-4.2-7.2zM351.9 231.5l4.2 7.4 1.7-1.1-4.2-7.2zM343.4 217.1l4.3 7.2 1.7-.9-4.1-7.4zM343.4 166.2l1.9 1.1 4.1-7.3-1.7-1zM434.2 145.4l4 7.2 1.9-.8-4.2-7.4zM450.9 174.5l4 7.2 1.9-1.1-4.2-7.2zM460.9 188l-1.7.9 1.5 2.7-1.5 2.8 1.7 1 1.7-2.7h2.9v-2.1h-2.9zM450.9 208.8l1.7 1.1 4.2-7.2-1.9-1.1zM434.2 237.8l1.7 1.1 4.2-7.4-1.9-.9zM442.4 223.4l1.7.9 4.3-7.2-1.7-1.1zM429.9 245.1l-1.5 2.7h-3.1v1.9h3.1l1.5 2.8 1.7-1.1-1.5-2.5 1.5-2.8zM391.8 247.8h8.3v1.9h-8.3zM375 247.8h8.5v1.9H375zM408.5 247.8h8.3v1.9h-8.3zM533.2 180.6l1.7 1.1 4.2-7.2-1.9-1.1zM553.9 144.4l-4 7.4 1.7.8 4.2-7.2-1.4-.8zM527.2 78.4l1.5 2.6h.2l1.7-.9-1.5-2.5H524v.8h.3zM515.8 78.4v-.8h-8.5v.8h.2zM499 78.4v-.8h-8.5v.8h.3zM482.3 78.4v-.8h-8.5v.8h.2zM462.6 78.4h2.9v-.8h-4.8l-1.5 2.5 1.7.9zM442.4 160l4.3 7.3 1.7-1.1-4.3-7.2zM490.8 190.6h8.3v2.1h-8.3zM507.5 190.6h8.3v2.1h-8.3zM474 190.6h8.3v2.1H474zM351.9 117.2l4.2 7.4 1.7-1-4.2-7.2zM343.4 102.8l4.3 7.2 1.7-1-4.1-7.3zM335.2 88.4l4.2 7.2 1.7-1.1-4.2-7.2zM450.9 94.5l1.7 1.1 4.2-7.2-1.9-1.1zM442.4 109l1.7 1 4.3-7.2-1.7-1.1zM434.2 123.6l1.7 1 4.2-7.4-1.9-.8zM429.9 130.8l-1.5 2.7h-3.1v2h3.1l1.5 2.7 1.7-1.1-1.5-2.7 1.5-2.6zM375 133.5h8.5v1.9H375zM408.5 133.5h8.3v1.9h-8.3zM391.8 133.5h8.3v1.9h-8.3zM361.9 366.7h.2l1.5-2.7h3.1v-1.9h-3.1l-1.5-2.8-1.9 1.1 1.5 2.5-1.5 2.8zM159.8 352.1l-4-7.2h-.2l-1.7 1.1 4.2 7.2zM138.9 315.9l-1.7 1 4.2 7.2 1.9-1-4.2-7.2zM145.6 280.5l1.7 1 4.3-7.2-1.9-1.1zM159.8 259.7l-1.7-.9-4.2 7.2 1.7.9zM143.1 288.7l-1.7-1-4.2 7.2 1.7 1zM164.1 252.5l1.5-2.8h3.1v-1.9h-3.1l-1.5-2.7-1.7 1 1.5 2.8-1.5 2.5zM263.1 302.3l-1.9.8 1.7 2.8-1.7 2.7 1.9 1.1 1.5-2.7h3.1v-2.2h-3.1zM330.9 302.3l-1.5 2.5h-3.1v2.2h3.1l1.5 2.7 1.7-1.1-1.5-2.7 1.5-2.8zM351.9 266l1.7.9 4.2-7.2-1.7-.9zM335.2 294.9l1.7 1 4.2-7.2-1.7-1zM362.1 252.5l1.5-2.8h3.1v-1.9h-3.1l-1.5-2.7-1.9 1 1.7 2.8-1.7 2.5zM252.9 208.8l1.7 1.1 4.2-7.2-1.7-1.1zM236.2 237.8l1.7 1.1 4.2-7.4-1.7-.9zM227.3 249.7h3.1l1.5 2.8 1.7-1.1-1.5-2.5 1.5-2.8-1.7-1-1.5 2.7h-3.1zM250.4 280.5l-4.1-7.3-1.9 1.1 4.3 7.2zM252.9 288.7l4.2 7.2 1.7-1-4.2-7.2zM236.2 259.7l4.2 7.2 1.7-.9-4.2-7.2zM143.1 208.8l-4.2-7.2-1.7 1.1 4.2 7.2zM159.8 237.8l-4.2-7.2-1.7.9 4.2 7.4zM132.9 195.4l1.9-1-1.7-2.8 1.7-2.7-1.9-.9-1.5 2.6h-3.1v2.1h3.1zM145.6 166.2l1.7 1.1 4.3-7.3-1.9-1zM159.8 145.4l-1.7-1-4.2 7.4 1.7.8zM143.1 174.5l-1.7-1.1-4.2 7.2 1.7 1.1zM164.1 138.2l1.5-2.7h3.1v-2h-3.1l-1.5-2.7-1.7 1 1.5 2.6-1.5 2.7zM263.1 195.4l1.5-2.7h3.1v-2.1h-3.1l-1.5-2.6-1.9.9 1.7 2.7-1.7 2.8zM250.4 217.1l-1.7-1.1-4.3 7.4 1.9.9zM210.5 247.8h8.3v2.1h-8.3zM177 247.8h8.3v2.1H177zM193.8 247.8h8.3v2.1h-8.3zM330.9 188l-1.5 2.6h-3.1v2.1h3.1l1.5 2.7 1.7-1-1.5-2.8 1.5-2.7zM335.2 180.6l1.7 1.1 4.2-7.2-1.7-1.1zM351.9 151.8l1.7.8 4.2-7.2-1.7-1zM362.1 138.2l1.5-2.7h3.1v-2h-3.1l-1.5-2.7-1.9 1 1.7 2.6-1.7 2.7zM330.9 77.6H326.3v.8h3.1l1.5 2.6 1.7-.9-1.3-2.5zM276 77.6h8.5v.8H276zM309.5 77.6h8.5v.8h-8.5zM292.8 77.6h8.5v.8h-8.5zM264.6 78.4h3.1v-.8h-5l-1.5 2.5 1.9.9zM236.2 123.6l1.7 1 4.2-7.4-1.7-.8zM250.4 102.8l-1.7-1.1-4.3 7.3 1.9 1zM252.9 94.5l1.7 1.1 4.2-7.2-1.7-1.1zM231.9 130.8l-1.5 2.7h-3.1v2h3.1l1.5 2.7 1.7-1.1-1.5-2.7 1.5-2.6zM252.9 174.5l4.2 7.2 1.7-1.1-4.2-7.2zM236.2 145.4l4.2 7.2 1.7-.8-4.2-7.4zM250.4 166.2l-4.1-7.2-1.9 1 4.3 7.3zM292.8 190.6h8.3v2.1h-8.3zM276 190.6h8.3v2.1H276zM309.5 190.6h8.3v2.1h-8.3zM143.1 94.5l-4.2-7.2-1.7 1.1 4.2 7.2zM145.6 102.8l4.1 7.2 1.9-1-4.3-7.3zM159.8 123.6l-4.2-7.2-1.7.8 4.2 7.4zM193.8 133.5h8.3v2.1h-8.3zM210.5 133.5h8.3v2.1h-8.3zM177 133.5h8.3v2.1H177zM131.4 307l1.5 2.7.2-.2v.2l1.7-1.1-1.7-2.7 1.7-2.8-1.9-.8-1.5 2.5h-3.1v2.2h.2zM145.6 217.1l4.1 7.2 1.9-.9-4.3-7.4zM65.1 195.4l1.5-2.7h3.1v-2.1h-3.1l-1.5-2.6-1.7.9 1 2.1.5.6-1.5 2.8zM60.8 202.7l-1.7-1.1-4.2 7.2 1.7 1.1zM44.1 231.7v-.2l-1.7-.9-4.2 7.2 1.7 1.1zM46.6 274.3l4.1 7.2h.2l1.7-1-4.3-7.3zM65.1 309.7l1.7-2.7h2.9v-2.2h-2.9l-1.7-2.5-1.7.8 1.5 3-1.5 2.5zM78 304.8v2.2h8.5v-2.2h-8.3zM111.5 307h8.5v-2.2h-8.5zM94.8 307H103.2v-2.2H94.8zM60.8 180.6l-4.2-7.2-1.7 1.1 4.2 7.2zM46.6 160l4.1 7.3 1.9-1.1-4.3-7.2zM44.1 151.8l-4.2-7.4-1.7 1 4.2 7.2zM33.9 245.1l-1.5 2.7h-3.1v1.9h3.1l1.5 2.8h.2l1.7-1.1-1.5-2.7 1.5-2.6zM78 190.6h8.3v2.1H78zM94.8 190.6h8.3v2.1h-8.3zM111.5 190.6h8.3v2.1h-8.3zM46.6 223.4l1.7.9 4.3-7.2-1.9-1.1zM0 247.8h4.2v1.9H0zM12.5 247.8v1.9H21v-1.9h-8.3zM541.4 217.1l4.3 7.2 1.7-.9-4.3-7.4zM533.2 202.7l4 7.2 1.9-1.1-4.2-7.2zM549.9 231.5l4 7.4 1.9-1.1-4.2-7.2zM631.9 237.8l1.7 1.1v-.2l.3.2 4-7.2-1.7-1.1zM648.7 208.8l1.7 1.1h.2l4-7.2-1.7-1.1zM644.7 216.2l-.2-.2-4.1 7.4 1.7.9 4.3-7.2-1.7-1.1zM633.6 144.6v-.2l-1.7 1 4.3 7.2 1.7-.8-4-7.4zM650.4 173.4l-1.7 1.1 4.2 7.2 1.7-1.1-4-7.2zM640.2 160l4.3 7.3h.2l1.7-1.1-4.3-7.2zM541.4 166.2l1.7 1.1 4.3-7.3-1.7-1zM528.9 188l-1.7 2.6h-2.9v2.1h2.9l1.7 2.7 1.7-1-1.5-2.8 1.5-2.7zM236.2 352.1l1.7 1.1 4.2-7.2-1.7-1.1zM252.9 323.1l1.7 1 4.2-7.2-1.7-1zM250.4 331.3l-1.7-1-4.3 7.4 1.9.8zM276 304.8h8.5v2.1H276zM292.8 304.8h8.5v2.1h-8.5zM309.5 304.8h8.5v2.1h-8.5zM335.2 316.9l4.2 7.2 1.7-1-4.2-7.2zM343.4 331.3l4.3 7.2 1.7-.8-4.1-7.4zM351.9 346l4.2 7.2 1.7-1.1-4.2-7.2zM50.7 101.7l-4.1 7.3 1.7 1 4.3-7.2-1.7-1.1zM38.2 123.6l1.7 1 .2-.2v.2l4.2-7.4-1.9-.8zM54.9 94.5l1.7 1.1h.2l4.3-7.2-2-1.1zM34.1 130.8h-.2l-1.5 2.7h-3.1v2h3.1l1.5 2.7 1.9-1.1-1.5-2.5 1.5-2.8zM12.5 135.5H21v-2h-8.5zM0 133.5h4.2v1.9H0zM131.4 78.4l1.5 2.6 1.9-.9-1.5-2.5h-5v.8h.2zM66.8 78.4h2.9v-.8h-5l-1.3 2.5 1.7.9zM120 78.4v-.8h-8.5v.8h.2zM86.5 78.4v-.8H78v.8h.2zM103.2 78.4v-.8H94.8v.8h.2zM648.7 517.2l4.2 7.3 1.7-.9-4.2-7.2zM631.9 488.2l4.3 7.4 1.7-1-4.3-7.2zM640.4 502.8l4.1 7.2 1.6-1-4-7.2zM658.9 530.8l-1.9 1.1 1.7 2.5h4.8v-.8h-3.1zM631.9 466.4l1.7 1 4.3-7.2-1.7-1zM648.7 437.3l1.7 1.1 4.2-7.2-1.7-1.1zM688.5 533.6h8.5v.8h-8.5zM671.8 533.6h8.5v.8h-8.5zM705.3 533.6h8.5v.8h-8.5zM658.9 424l1.5-2.8h3.1v-1.9h-3.1l-1.5-2.7-1.9 1 1.7 2.6-1.7 2.7zM640.4 452l1.7 1 4-7.4-1.6-.9zM627.7 473.6l-1.5 2.7H623v2.2h3.2l1.5 2.5 1.9-.8-1.7-2.8 1.7-2.8zM589.5 476.3h8.3v2.1h-8.3zM606.3 476.3h8.3v2.1h-8.3zM572.8 476.3h8.3v2.1h-8.3zM671.8 419.3h8.3v2.1h-8.3zM688.5 419.3h8.3v2.1h-8.3zM705.3 419.3h8.3v2.1h-8.3zM527.2 533.6H524v.8h5.1l1.5-2.5-1.9-1.1zM532.9 523.6l1.7.9 4.3-7.3-1.7-.8zM541.4 509l1.7 1 4.3-7.2-1.9-1zM549.7 494.6l1.7 1 4.2-7.4-1.7-.8zM559.9 473.6l-1.7 1 1.5 2.8-1.5 2.8 1.7.8 1.5-2.5h3.1v-2.2h-3.1zM532.9 431.2l4.3 7.2 1.7-1.1-4.3-7.2zM541.4 445.6l4.1 7.4 1.9-1-4.3-7.3zM549.7 460.2l4.2 7.2 1.7-1-4.2-7.2zM460.9 416.6l-1.7 1 .6 1.3.9 1.3-1.5 2.7 1.7 1.1 1.5-2.8h3.1v-1.9h-3.1zM456.6 431.2l-1.7-1.1-4.2 7.2 1.7 1.1zM439.9 460.2l-1.7-1-4.3 7.2 2 1zM429.9 473.6l-1.7 2.7h-2.9v2.2h2.9l1.7 2.5 1.7-.8-1.5-3 1.5-2.6zM528.7 416.6l-1.5 2.7H524v1.9h3.2l1.5 2.8 1.9-1.1-1.7-2.7 1.7-2.6zM507.3 419.3h8.3v2.1h-8.3zM490.5 419.3h8.3v2.1h-8.3zM473.8 419.3h8.3v2.1h-8.3zM442.4 452l1.7 1 4.3-7.4-1.7-.9zM345.1 444.7l-1.7.9 4.3 7.4 1.7-1-4.1-7.3zM263.1 416.6l-1.9 1 1.7 2.6-1.7 2.7 1.9 1.1 1.5-2.8h3.1v-1.9h-3.1zM334.9 431.2l4.3 7.2h.2l1.7-1.1-4.2-7.2zM351.7 460.2l4.2 7.2h.2l1.7-1-4.2-7.2zM351.9 494.6l1.7 1 4.2-7.4-1.7-.8zM335.2 523.6l1.7.9 4.2-7.3-1.7-.8zM343.4 509l1.9 1 4.1-7.2-1.7-1zM329.4 533.6h-3.1v.8h4.8l1.5-2.5-1.7-1.1zM309.5 419.3h8.5v1.9h-8.5zM292.8 419.3h8.5v1.9h-8.5zM276 419.3h8.5v1.9H276zM473.8 533.6v.8h8.5v-.8H474zM490.5 533.6v.8h8.5v-.8h-8.2zM507.3 533.6v.8h8.5v-.8h-8.3zM460.9 530.8l-1.7 1.1 1.5 2.5v.2l.2-.2h4.6v-.8h-2.9zM362.1 473.6l-.2.2v-.2l-1.7 1 1.5 2.8-1.5 2.8 1.9.8 1.5-2.5h3.1v-2.2h-3.1zM383.5 478.5v-2.2H375v2.2h8.3zM408.5 476.3h8.3v2.1h-8.3zM391.8 476.3h8.3v2.1h-8.3zM433.9 488.2l4.3 7.4 1.9-1-4.2-7.2zM442.4 502.8l4.3 7.2 1.7-1-4.3-7.2zM452.4 516.4l-1.7.8 4.2 7.3 1.9-.9-4.2-7.2zM240.414 495.576l-4.15-7.188 1.645-.95 4.15 7.188zM292.8 533.6h8.5v.8h-8.5zM276 533.6h8.5v.8H276zM309.5 533.6h8.5v.8h-8.5zM263.1 530.8l-1.9 1.1 1.7 2.5h4.8v-.8h-3.1zM164.1 481l1.7-2.5h2.9v-2.2h-2.9l-1.7-2.7-1.7 1 1.5 2.6-1.5 3zM231.9 473.6l-1.5 2.7h-3.1v2.2h3.1l1.5 2.9 1.7-1-.1-.2h.1l-1.5-2.8 1.5-2.8zM252.9 517.2l4.2 7.3 1.7-.9-4.2-7.2zM246.2 501.9l-1.8 1 4.2 7.2.2-.1 1.4-.8-1.4.9.1.1 1.7-1.1-4.2-7.2h-.2zm4.1 7.1l-3.6-6.2 3.6 6.2zM198.4 498.4c-19.9 0-36 16.1-36 36h2.5c0-18.4 15.1-33.5 33.5-33.5s33.5 15.1 33.5 33.5h2.5c.1-19.9-16-36-36-36zM38.4 488.2l4 7.4 1.9-1-4.2-7.2zM55.1 517.2l4 7.3 2-.9-4.3-7.2zM46.6 502.8l4.3 7.2 1.7-1-4.3-7.2zM132.9 530.8l-1.5 2.8h-3.1v.8h4.8v.2l.2-.2 1.5-2.5-1.7-1.1zM153.9 494.6l1.7 1v-.2l.2.2 4-7.4-1.7-.8zM149.7 501.8l-4.1 7.2 1.7 1 4.3-7.2-1.7-1zM137.2 523.6l1.7.9h.2l4.2-7.3-1.9-.8zM65.1 530.8l-1.7 1.1 1.5 2.5h4.8v-.8h-2.9zM94.8 533.6v.8H103.2v-.8H95zM111.5 533.6v.8h8.5v-.8h-8.3zM78 533.6v.8h8.5v-.8h-8.3zM65.1 416.6l-1.7 1 1.5 2.6-1.5 2.7 1.7 1.1 1.7-2.8h2.9v-1.9h-2.9zM55.1 437.3l1.7 1.1 4.3-7.2-2-1.1zM46.6 452l1.7 1 4.3-7.4-1.7-.9zM38.4 466.4l1.7 1 4.2-7.2-1.9-1zM34.1 473.6l-1.5 2.7h-3.1v2.2h3.1l1.5 2.5 1.7-.8-1.5-2.8 1.5-2.8zM12.7 476.3H21v2.1h-8.3zM0 476.3h4.2v2.1H0zM111.7 419.3h8.3v2.1h-8.3zM78.2 419.3h8.3v2.1h-8.3zM95 419.3h8.3v2.1H95zM137.4 431.2l4 7.2 1.9-1.1-4.2-7.2zM153.9 460.2l4.2 7.2 2-1-4.3-7.2zM145.6 445.6l4.3 7.4 1.7-1-4.3-7.3zM248.7 444.7l-4.3 7.3 1.9 1 4.3-7.4-1.7-.9zM236.2 466.4l1.7 1h.2l4-7.2-1.7-1zM252.9 437.3l1.7 1.1h.2l4-7.2-1.7-1.1zM177 478.5h8.5v-2.2H177zM193.8 478.5H202.2v-2.2h-8.4zM210.5 478.5h8.5v-2.2h-8.5zM133.3 416.8l-.2-.2-1.7 2.7h-2.9v1.9h2.9l1.7 2.8 1.7-1.1-1.5-2.7 1.5-2.6zM330.9 416.6l-1.7 2.7h-2.9v1.9h2.9l1.7 2.8 1.7-1.1-1.5-2.7 1.5-2.6z"/></svg>